<svg xmlns="http://www.w3.org/2000/svg" xmlns:xlink="http://www.w3.org/1999/xlink" viewBox="0 0 1355 934"><defs><style>.cls-1{fill:none;}.cls-2{fill:#9aa5aa;}.cls-3{fill:#4d5255;}.cls-4{fill:#868f94;}.cls-5{isolation:isolate;}.cls-6{fill:#e6e6e6;}.cls-10,.cls-11,.cls-12,.cls-13,.cls-14,.cls-15,.cls-16,.cls-17,.cls-18,.cls-19,.cls-20,.cls-21,.cls-22,.cls-23,.cls-24,.cls-25,.cls-26,.cls-27,.cls-28,.cls-29,.cls-30,.cls-31,.cls-32,.cls-33,.cls-34,.cls-7,.cls-8,.cls-9{opacity:0.3;}.cls-7{fill:url(#linear-gradient);}.cls-8{fill:url(#linear-gradient-2);}.cls-9{fill:url(#linear-gradient-3);}.cls-10{fill:url(#linear-gradient-4);}.cls-11{fill:url(#linear-gradient-5);}.cls-12{fill:url(#linear-gradient-6);}.cls-13{fill:url(#linear-gradient-7);}.cls-14{fill:url(#linear-gradient-8);}.cls-15{fill:url(#linear-gradient-9);}.cls-16{fill:url(#linear-gradient-10);}.cls-17{fill:url(#linear-gradient-11);}.cls-18{fill:url(#linear-gradient-12);}.cls-19{fill:url(#linear-gradient-13);}.cls-20{fill:url(#linear-gradient-14);}.cls-21{fill:url(#linear-gradient-15);}.cls-22{fill:url(#linear-gradient-16);}.cls-23{fill:url(#linear-gradient-17);}.cls-24{fill:url(#linear-gradient-18);}.cls-25{fill:url(#linear-gradient-19);}.cls-26{fill:url(#linear-gradient-20);}.cls-27{fill:url(#linear-gradient-21);}.cls-28{fill:url(#linear-gradient-22);}.cls-29{fill:url(#linear-gradient-23);}.cls-30{fill:url(#linear-gradient-24);}.cls-31{fill:url(#linear-gradient-25);}.cls-32{fill:url(#linear-gradient-26);}.cls-33{fill:url(#linear-gradient-27);}.cls-34{fill:url(#linear-gradient-28);}.cls-35{fill:#f2f2f2;}.cls-36,.cls-41,.cls-43,.cls-45,.cls-47,.cls-49{opacity:0.2;}.cls-36{fill:url(#linear-gradient-29);}.cls-37{fill:#333;}.cls-38{fill:#999;}.cls-39{fill:#bfbfbf;}.cls-40,.cls-42,.cls-44,.cls-46,.cls-48,.cls-50{opacity:0.5;mix-blend-mode:multiply;}.cls-40{fill:url(#linear-gradient-31);}.cls-41{fill:url(#linear-gradient-32);}.cls-42{fill:url(#linear-gradient-34);}.cls-43{fill:url(#linear-gradient-35);}.cls-44{fill:url(#linear-gradient-37);}.cls-45{fill:url(#linear-gradient-38);}.cls-46{fill:url(#linear-gradient-40);}.cls-47{fill:url(#linear-gradient-41);}.cls-48{fill:url(#linear-gradient-43);}.cls-49{fill:url(#linear-gradient-44);}.cls-50{fill:url(#linear-gradient-46);}.cls-51{fill:url(#New_Pattern_5);}.cls-52{fill:#4d4d4d;}.cls-53{fill:#ccc;}</style><linearGradient id="linear-gradient" x1="1255" y1="-2.35" x2="1255" y2="74.15" gradientUnits="userSpaceOnUse"><stop offset="0" stop-color="#fff"/><stop offset="1"/></linearGradient><linearGradient id="linear-gradient-2" x1="1255" y1="66.65" x2="1255" y2="143.15" xlink:href="#linear-gradient"/><linearGradient id="linear-gradient-3" x1="1255" y1="135.65" x2="1255" y2="212.15" xlink:href="#linear-gradient"/><linearGradient id="linear-gradient-4" x1="1255" y1="204.65" x2="1255" y2="281.15" xlink:href="#linear-gradient"/><linearGradient id="linear-gradient-5" x1="1255" y1="273.65" x2="1255" y2="350.15" xlink:href="#linear-gradient"/><linearGradient id="linear-gradient-6" x1="1255" y1="342.65" x2="1255" y2="419.15" xlink:href="#linear-gradient"/><linearGradient id="linear-gradient-7" x1="1255" y1="411.65" x2="1255" y2="488.15" xlink:href="#linear-gradient"/><linearGradient id="linear-gradient-8" x1="1255" y1="480.65" x2="1255" y2="557.15" xlink:href="#linear-gradient"/><linearGradient id="linear-gradient-9" x1="1255" y1="549.65" x2="1255" y2="626.15" xlink:href="#linear-gradient"/><linearGradient id="linear-gradient-10" x1="1255" y1="618.65" x2="1255" y2="695.15" xlink:href="#linear-gradient"/><linearGradient id="linear-gradient-11" x1="1255" y1="687.65" x2="1255" y2="764.15" xlink:href="#linear-gradient"/><linearGradient id="linear-gradient-12" x1="1255" y1="756.65" x2="1255" y2="833.15" xlink:href="#linear-gradient"/><linearGradient id="linear-gradient-13" x1="1255" y1="825.65" x2="1255" y2="902.15" xlink:href="#linear-gradient"/><linearGradient id="linear-gradient-14" x1="1255" y1="894.65" x2="1255" y2="971.15" xlink:href="#linear-gradient"/><linearGradient id="linear-gradient-15" x1="2262.83" y1="-2.35" x2="2262.83" y2="74.15" gradientTransform="matrix(-1, 0, 0, 1, 2361.67, 0)" xlink:href="#linear-gradient"/><linearGradient id="linear-gradient-16" x1="2262.83" y1="66.65" x2="2262.83" y2="143.15" gradientTransform="matrix(-1, 0, 0, 1, 2361.67, 0)" xlink:href="#linear-gradient"/><linearGradient id="linear-gradient-17" x1="2262.83" y1="135.65" x2="2262.83" y2="212.15" gradientTransform="matrix(-1, 0, 0, 1, 2361.67, 0)" xlink:href="#linear-gradient"/><linearGradient id="linear-gradient-18" x1="2262.83" y1="204.65" x2="2262.83" y2="281.15" gradientTransform="matrix(-1, 0, 0, 1, 2361.67, 0)" xlink:href="#linear-gradient"/><linearGradient id="linear-gradient-19" x1="2262.83" y1="273.65" x2="2262.83" y2="350.15" gradientTransform="matrix(-1, 0, 0, 1, 2361.67, 0)" xlink:href="#linear-gradient"/><linearGradient id="linear-gradient-20" x1="2262.83" y1="342.65" x2="2262.83" y2="419.15" gradientTransform="matrix(-1, 0, 0, 1, 2361.67, 0)" xlink:href="#linear-gradient"/><linearGradient id="linear-gradient-21" x1="2262.83" y1="411.65" x2="2262.83" y2="488.15" gradientTransform="matrix(-1, 0, 0, 1, 2361.67, 0)" xlink:href="#linear-gradient"/><linearGradient id="linear-gradient-22" x1="2262.83" y1="480.65" x2="2262.83" y2="557.15" gradientTransform="matrix(-1, 0, 0, 1, 2361.67, 0)" xlink:href="#linear-gradient"/><linearGradient id="linear-gradient-23" x1="2262.83" y1="549.65" x2="2262.83" y2="626.15" gradientTransform="matrix(-1, 0, 0, 1, 2361.67, 0)" xlink:href="#linear-gradient"/><linearGradient id="linear-gradient-24" x1="2262.83" y1="618.65" x2="2262.83" y2="695.15" gradientTransform="matrix(-1, 0, 0, 1, 2361.67, 0)" xlink:href="#linear-gradient"/><linearGradient id="linear-gradient-25" x1="2262.83" y1="687.65" x2="2262.83" y2="764.15" gradientTransform="matrix(-1, 0, 0, 1, 2361.67, 0)" xlink:href="#linear-gradient"/><linearGradient id="linear-gradient-26" x1="2262.83" y1="756.65" x2="2262.83" y2="833.15" gradientTransform="matrix(-1, 0, 0, 1, 2361.67, 0)" xlink:href="#linear-gradient"/><linearGradient id="linear-gradient-27" x1="2262.83" y1="825.65" x2="2262.83" y2="902.15" gradientTransform="matrix(-1, 0, 0, 1, 2361.67, 0)" xlink:href="#linear-gradient"/><linearGradient id="linear-gradient-28" x1="2262.83" y1="894.65" x2="2262.83" y2="971.15" gradientTransform="matrix(-1, 0, 0, 1, 2361.67, 0)" xlink:href="#linear-gradient"/><linearGradient id="linear-gradient-29" x1="2299.52" y1="99.13" x2="2292.52" y2="168.13" gradientTransform="matrix(-1, 0, 0, 1, 2361.67, 0)" xlink:href="#linear-gradient"/><linearGradient id="linear-gradient-31" x1="2222.55" y1="119.4" x2="2270.05" y2="119.4" gradientTransform="matrix(-1, 0, 0, 1, 2361.67, 0)" xlink:href="#linear-gradient"/><linearGradient id="linear-gradient-32" x1="2299.52" y1="415.63" x2="2292.52" y2="484.63" gradientTransform="matrix(-1, 0, 0, 1, 2361.67, 0)" xlink:href="#linear-gradient"/><linearGradient id="linear-gradient-34" x1="2222.55" y1="435.9" x2="2270.05" y2="435.9" gradientTransform="matrix(-1, 0, 0, 1, 2361.67, 0)" xlink:href="#linear-gradient"/><linearGradient id="linear-gradient-35" x1="2299.52" y1="732.13" x2="2292.52" y2="801.13" gradientTransform="matrix(-1, 0, 0, 1, 2361.67, 0)" xlink:href="#linear-gradient"/><linearGradient id="linear-gradient-37" x1="2222.55" y1="752.4" x2="2270.05" y2="752.4" gradientTransform="matrix(-1, 0, 0, 1, 2361.67, 0)" xlink:href="#linear-gradient"/><linearGradient id="linear-gradient-38" x1="-1120.48" y1="99.13" x2="-1127.48" y2="168.13" gradientTransform="translate(2417.91)" xlink:href="#linear-gradient"/><linearGradient id="linear-gradient-40" x1="-1197.45" y1="119.4" x2="-1149.95" y2="119.4" gradientTransform="translate(2417.91)" xlink:href="#linear-gradient"/><linearGradient id="linear-gradient-41" x1="-1120.48" y1="415.63" x2="-1127.48" y2="484.63" gradientTransform="translate(2417.91)" xlink:href="#linear-gradient"/><linearGradient id="linear-gradient-43" x1="-1197.45" y1="435.9" x2="-1149.95" y2="435.9" gradientTransform="translate(2417.91)" xlink:href="#linear-gradient"/><linearGradient id="linear-gradient-44" x1="-1120.48" y1="732.13" x2="-1127.48" y2="801.13" gradientTransform="translate(2417.91)" xlink:href="#linear-gradient"/><linearGradient id="linear-gradient-46" x1="-1197.45" y1="752.4" x2="-1149.95" y2="752.4" gradientTransform="translate(2417.91)" xlink:href="#linear-gradient"/><pattern id="New_Pattern_5" data-name="New Pattern 5" width="100" height="100.03" patternTransform="translate(10 89.91)" patternUnits="userSpaceOnUse" viewBox="0 0 100 100.03"><rect class="cls-1" width="100" height="100.03"/><path class="cls-2" d="M99.89,98.46c0,.5.19,1.19-.05,1.44s-.94.05-1.44.05q-48.8,0-97.6,0c-.62,0-.76-.14-.76-.76Q.05,50,.05.86C.05.62-.14.3.21.11.22,4,.27,7.8.22,11.65A3.15,3.15,0,0,0,1.4,14.56c2.29,1.75,3.71,4.31,5.71,6.34.52.53.92,2.13.46,2.69a41.24,41.24,0,0,1-4.49,4.53C1.82,28,1.37,29.2.49,29.7a.41.41,0,0,0-.14.64c.2.26.46.11.65-.06s.59-.58.89-.87c.13-.13.26-.33.48-.23s.16.33.16.52c0,1.25,0,2.49,0,3.74a2.09,2.09,0,0,0,.69,1.68C6.6,38.47,10,41.85,13.33,45.2a2,2,0,0,1,.67,1.6c0,2.16,0,4.32,0,6.48a30.51,30.51,0,0,1-3.18,3.14c-.28,0-.52-.15-.43-.47.21-.71-.26-.85-.77-1-1.25-.33-1.34-.3-2,.83-.07.12-.14.29-.25.32-1.15.35-1.63,1.52-2.6,2.1a2.78,2.78,0,0,0-1.46,1.71c-.34,1.42-.65,1.65-2.12,1.64-.68,0-.92.21-.91.91,0,1.93,0,3.87,0,5.81a1.5,1.5,0,0,0,.52,1.24c.66.58,1.3,1.19,1.95,1.79a.7.7,0,0,1,.27.74c-.11.35-.43.3-.69.31l-1.49,0a.48.48,0,0,0-.52.51c0,.41.3.3.54.31h.83c.27,0,.54.09.54.4,0,1.58,1.54,2.65,1.38,4.31,0,.39,0,.82-.28,1-.75.52-.58,1.09-.22,1.72l-1.69,1.7c0-.19,0-.38,0-.58,0-.53-.32-.65-.74-.67s-.37.39-.37.65c0,.55,0,1.09.07,1.64A5.54,5.54,0,0,0,.24,85c0,.23-.1.49,0,.6l4.61-4.34c.41-.41.84-.81,1.24-1.23s.52-.35.83,0c.76.8,1.55,1.58,2.33,2.36-.59.63-.3,1.49-.56,2.21-.16.44-.39,1,0,1.43.55.66,1.13,1.25.47,2.16-.06.08.12.3.13.46.09.88.58,1.85-.56,2.47a.76.76,0,0,0-.32.72,1.16,1.16,0,0,1-1.24,1.28,1.75,1.75,0,0,0-1.2.36,2,2,0,0,1-2.62-.6,1.87,1.87,0,0,0-3-.33,6.12,6.12,0,0,0-.05,2.22c0,.94-.05,1.87-.05,2.81,0,2.32,0,2.32,2.36,2.19l2.51,0a21.47,21.47,0,0,1,2.4,0c2.39.29,4.48-.13,5.9-2.3a.66.66,0,0,1,.12-.11,2.65,2.65,0,0,1,1.95-.73,48,48,0,0,0,5.63,0,4.71,4.71,0,0,1,4.71,2,2.8,2.8,0,0,0,3.21,1.06l2.17.07c1.22,0,2.44,0,3.65,0,.54,0,.79-.21.72-.73a1.74,1.74,0,0,1,.68-1.51c2.79-2.77,5.55-5.56,8.35-8.33a1.83,1.83,0,0,0,.61-1.46c0-1,0-2,0-3a1.73,1.73,0,0,1,.57-1.39,56.26,56.26,0,0,0,4.15-4.19,5,5,0,0,1,4.82-2c1.07.14,1.1,0,1.1,1.15,0,4.23,0,8.47,0,12.7a1.87,1.87,0,0,0,.6,1.47c1.51,1.47,3,3,4.47,4.45.64.64,1.41,1.18,1.12,2.29-.08.31.14.51.49.5a.43.43,0,0,0,.47-.46,1.81,1.81,0,0,0-.5-1.59C60.73,96,59,94.21,57.26,92.48a1.63,1.63,0,0,1-.58-1.22q0-6.35,0-12.7c0-.64.23-.89.88-.87,1.36,0,2.71,0,4.07,0,1.81,0,1.8,0,2.51,1.68.2.47.78.93-.26,1.1-.19,0-.18.32-.19.51a1.61,1.61,0,0,0,.61,1.39,4.48,4.48,0,0,1,1.21,1.86c.09.23.17.54.35.64,1.25.74,1.13,2.15,1.37,3.24a13.86,13.86,0,0,1,.28,4.34,1.66,1.66,0,0,0,.12,1.06c.51.8.18,1.41-.39,2s-.78,1-.24,1.58a.57.57,0,0,1,.09.55,2,2,0,0,0,.44,1.86c-.09.26.08.27.25.26l1.78-.07a31.17,31.17,0,0,0,3.56.06,2,2,0,0,0,2.18-2c0-.34-.12-.77.36-.91a1.07,1.07,0,0,1,1.12.35c.72.73,1.45,1.45,2.17,2.17.28.28.56.51,1,.28,0-.06,0-.1,0-.12l-2.32-2.37c-.21-.21-.53-.43-.35-.77a3.62,3.62,0,0,1,2.1-1.86,3,3,0,0,0,1.46-.81c.46-.48.93-.95,1.41-1.41a2.76,2.76,0,0,1,3.32,0c1.24,1.23,2.44,2.49,3.7,3.7a2.09,2.09,0,0,1,.7,1.68c0,2.08,0,2.08,2,2.05h2c.89,0,1.77,0,2.66,0,.69,0,.93-.2.93-.89s.4-1,1.2-.78Z"/><path class="cls-3" d="M7,60.3a4.57,4.57,0,0,0-1.62,3.89c.13,4.48,0,9,.07,13.45a1.74,1.74,0,0,1-.78,1.61,15.94,15.94,0,0,0-1.59,1.45l-1.69,1.7-1,1.05A5.55,5.55,0,0,0,.24,85a31,31,0,0,0,3-2.89c.27-.24.52-.5.77-.76a.55.55,0,0,1,.81-.09c.41-.41.84-.81,1.24-1.23s.52-.35.83,0c.76.8,1.55,1.58,2.33,2.36l1.42,1.39c.12.11.24.23.21.43-.39,2.28-.08,4.57-.16,6.86a1.87,1.87,0,0,1-.56,1.4C9,93.47,8,94.59,6.86,95.67a3.14,3.14,0,0,1-3.36,0C2.45,94.63,1.41,93.56.36,92.5a6.12,6.12,0,0,0-.05,2.22,29.89,29.89,0,0,1,2.41,2.35c.1.09.22.22.13.35-.51.73-.16,1.54-.24,2.31l2.51,0c.29-.94-.39-1.47-.87-2.16C5,97.75,5.83,97,6.43,98c.13.22.4-.17.55-.33,1.65-1.64,3.29-3.29,4.93-4.92a4.1,4.1,0,0,1,1.12-1c.33-.15.28-.45.28-.71,0-1.63,0-3.26,0-4.9,0-.78-.57-1.15-.95-1.7a.46.46,0,0,1,.6,0,3.28,3.28,0,0,0,3.64,0,.91.91,0,0,1,.55-.13,9.54,9.54,0,0,0,1.16,0,3.16,3.16,0,0,1,3.31,1.33,1.34,1.34,0,0,0,1.23.52c1.32,0,2.64,0,4.2,0a2.39,2.39,0,0,0-.84,2.21c-.07,2.51.24,5,0,7.54a1.64,1.64,0,0,0,.59,1.45,17.93,17.93,0,0,1,2.2,2.25l2.17.07a19.37,19.37,0,0,0-2.07-2.13,1.88,1.88,0,0,1-.61-1.46c0-2.82,0-5.64,0-8.46a4,4,0,0,0-.1-1.48c-.18-.48.23-.71.48-1q2.88-2.93,5.79-5.83l5.34-5.33a1.61,1.61,0,0,0,.51-.74.57.57,0,0,1,1-.29c.42.55.61.21.87-.06,1.48-1.49,3-3,4.45-4.47,1.08-1.07,2.18-2.12,3.27-3.18l.14-.17c0-.41.08-.77.64-.76H63.58A2.8,2.8,0,0,0,63,66.83c0,2.66,0,5.31,0,8,0,.5,0,.93.68,1,.23,0,.45.3.64.49,2,2,4,4,6,6a.86.86,0,0,1,.27,1.08,2.82,2.82,0,0,0-.1,1.06c0,3.79,0,7.58,0,11.37a1.58,1.58,0,0,1-.62,1.41c-.83.68-1.56,1.49-2.33,2.24-.09.26.08.27.25.26l1.78-.07A13.57,13.57,0,0,1,72.42,97c.26-.16.22-.32.22-.54q0-4.81,0-9.62a4.56,4.56,0,0,0-.14-2.36c-.12-.22,0-.29.23-.31a2.57,2.57,0,0,0,1.9-1.65.67.67,0,0,1,.69-.44l11.78,0c.22,0,.53,0,.58.21.23,1,1.16,1.43,1.76,2.13a.87.87,0,0,1,.25.92c-.31,1.3.08,2.65-.07,4a3.43,3.43,0,0,0,1.52,3.66,1.89,1.89,0,0,1,.75,1.79,41.45,41.45,0,0,0,.08,5h2l.12-4.61-.33-.46L93.1,94l.08-.21h6.71V92.48h-6.3a1.63,1.63,0,0,1-1.8-1.75c0-1.58,0-3.15,0-4.73v-.16A2.19,2.19,0,0,1,91,85h8.89V83.68l-1.15,0c-2.46,0-4.92,0-7.38,0A3.27,3.27,0,0,1,89,81.24c0-1.63,0-3.26,0-4.89a1.42,1.42,0,0,0-.48-1.09q-7.46-7.44-14.91-14.9a1.4,1.4,0,0,0-1.1-.45c-1.16,0-2.32,0-3.48,0-.56,0-.8-.24-.8-.79,0-1.49,0-3,0-4.47,0-.88-.06-1.77-.08-2.65,0-1.65,0-3.31.08-5a1.62,1.62,0,0,0-.55-1.31c-2.67-2.65-5.31-5.33-8-8a1.86,1.86,0,0,1-.61-1.46,45.9,45.9,0,0,0,0-6.05,2.89,2.89,0,0,1,1.24-2.83A13.81,13.81,0,0,1,61.84,26h0c-.05-.61.24-.81.84-.81,3.73,0,7.47,0,11.2,0,.14,0,.34,0,.4,0,.68.75,1,0,1.35-.34L92.86,7.66a3,3,0,0,1,.88-.75.43.43,0,0,0,.3-.45c-.1-1,.19-2,.06-3.05a18.72,18.72,0,0,1,.14-3.3H91.91c0,1.88,0,3.76,0,5.64a1.46,1.46,0,0,1-.68,1.44c-1.45,1-2.43,2.45-3.67,3.66C85.78,12.56,84,14.27,82.29,16c-2.34,2.39-4.72,4.73-7.05,7.13a1.77,1.77,0,0,1-1.39.57c-3.26,0-6.53,0-9.79,0-.74,0-1-.24-.93-1s0-1.71,0-2.57v-.32c-.45-.14-.44-.51-.44-.87q0-6.06,0-12.12a30,30,0,0,1,2.7-2.84c.53-.59,1.13-1.11,1.69-1.67.58-.85,1.56-1.34,2-2.28h-2a8.69,8.69,0,0,1-1.64,1.67,3.47,3.47,0,0,1-.84.82C63.58,3.9,62.3,5,61.13,6.25c-.21.22-.4.44-.61.66.39,0,.47.31.47.65,0,3.24.32,6.52-.11,9.69-.33,2.43-.17,4.81-.32,7.2,0,.25,0,.51-.17.71L58,27.59a1.08,1.08,0,0,1-.86.21l-6.46-.05a1,1,0,0,1-.73-.33c-.94-.94-1.86-1.89-2.83-2.8-.54-.51-.42-1.11-.36-1.7,0-.41.42-.35.72-.39s.83.13.83-.42-.48-.38-.78-.37c-.61,0-.9-.25-.82-.84a4.13,4.13,0,0,0-1.78-4.3,1.2,1.2,0,0,1-.38-1.29,3.76,3.76,0,0,0-1.45-3.53C39.45,8.26,35.87,4.63,32.28,1,32,.74,31.72.42,31.44.11H29.12l.54.62c.31,0,.48.26.67.45Q36,6.87,41.61,12.55c.21.21.65.35.31.86s.16,1.58-1.2,1.49c-2.12-.13-4.26,0-6.39,0a1.91,1.91,0,0,0-1.46.61,15,15,0,0,1-2.59,2.42l-.25.52c.42.08.39.41.39.72q0,4.4,0,8.8c0,.34,0,.55-.49.53-1.38-.07-2.76-.08-4.14-.12s-2.87,0-4.31,0a2.2,2.2,0,0,1-2.16-1c-1.6-1.57-3.2-3.13-4.79-4.71-2.67-2.65-5.28-5.37-8-8a3.87,3.87,0,0,1-1.35-3.11c0-.33,0-.66,0-1V7.76l0-7.65H3Q3,6.42,3,12.73a1.15,1.15,0,0,0,.39.87q8.11,8.09,16.21,16.2c.3.3.53.5.94.13.15-.13.48-.07.72-.07,3,0,6.09,0,9.13,0a2,2,0,0,1,1.74.72c.46.59,1,1.15,1.43,1.72l.18-.17s0,.13-.08.13c-1,.2-1.08.8-.89,1.65.23,1-.24,2,0,3,.05.25-.24.42-.41.59l-7,7c-.26.26-.51.55-.92.48a3.61,3.61,0,0,0-3.62,1.46C19,48.49,17,50.41,15,52.31l-1,1a30.51,30.51,0,0,1-3.18,3.14A41.61,41.61,0,0,1,7,60.3Zm60.79,1q2.32,0,4.63,0c.57,0,.83.19.8.75,3.72,3.7,7.47,7.39,11.14,11.14.66.67,1.34,1.31,2,2a.73.73,0,0,1,.22.92,7.23,7.23,0,0,0-.11,2.14c0,.26.11.62-.22.73s-.41-.22-.6-.38c-.4-.34-.68-.86-1.4-1,.27.73.84,1,1.23,1.5.12.15.28.27.41.41s.49.44.37.78-.51.26-.79.27c-3.24,0-6.47,0-9.71,0a2.26,2.26,0,0,0-1.83.74,2,2,0,0,1-3.2,0L65.6,76.21c-.28-.28-.57-.54-.45-1v-7c-.13-1.33.12-2.68-.13-4-.05-.28.16-.45.34-.62L67,62C66.93,61.49,67.18,61.28,67.75,61.29ZM27.53,84.5a1.17,1.17,0,0,1-.9.32c-1.22,0-2.44,0-3.65,0a1.39,1.39,0,0,1-1.29-.57,3.52,3.52,0,0,0-3.44-1.45c-1.82.12-3.65,0-5.48,0a1.73,1.73,0,0,1-1.39-.58c-.88-.92-1.77-1.83-2.71-2.69A2.12,2.12,0,0,1,8,77.82Q8,70.56,8,63.29c0-.41.17-.88-.26-1.24-.22-.19,0-.34.17-.46,2.28-2.29,4.5-4.65,6.87-6.86l.49-.49c2-2.13,4.08-4.14,6.14-6.19.37-.36.83-.66.9-1.25,0-.28.28-.31.51-.31.39,0,.78,0,1.16,0,.55,0,1,0,1,.73,0,.33.38.53.62.76L39,61.32c.31.31.6.54.37,1.12a4.73,4.73,0,0,0-.06,1.64c0,2.71,0,5.43,0,8.14,0,.77-.55,1.09-1,1.51-1.18,1.26-2.38,2.48-3.66,3.64C32.32,79.82,29.93,82.16,27.53,84.5Zm7.68-52.68c-.08-.26.16-.39.31-.54l5.94-5.92a1.06,1.06,0,0,1,.8-.37c.89,0,1.77,0,2.66,0a1.24,1.24,0,0,1,.9.52c1.27,1.27,2.56,2.53,3.81,3.82a1.49,1.49,0,0,0,1.24.51c1.82-.12,3.64.33,5.47,0,.42-.07.6.14.26.52a1.29,1.29,0,0,0-.24.94c0,1.63,0,3.27,0,4.9,0,.45,0,.88.59,1,.21,0,.4.29.57.46l7.94,7.91c.31.31.61.56.2,1a.84.84,0,0,0-.1.55,115.08,115.08,0,0,1,0,11.68c0,.55.09,1.1.11,1.65a1.2,1.2,0,0,1-1.34,1.39l-22,0a1,1,0,0,1-.81-.28c-2.51-2.53-5.06-5-7.58-7.56s-4.76-4.78-7.13-7.19c-.27-.27-.85-.42-.78-.8s.52-.62.81-.91q3.66-3.68,7.32-7.35c.26-.26.47-.64.93-.63.51-.41.14-1,.34-1.49C35.22,34.39,35.62,33.08,35.21,31.81ZM32.3,20.45c0-.76.58-1.46.15-2.25,0-.05.19-.25.3-.37s.52-.39.54-.61c.11-1.14.92-.93,1.65-.93h4.23c.29,0,.63-.08.65.41s.33.32.57.32c.72,0,1.44,0,2.16,0a1.42,1.42,0,0,1,1,.43,1.33,1.33,0,0,1,.54,1.45A15.68,15.68,0,0,0,44,21.39c-.05,1.11-.27,1.39-1.36,1.39A2.18,2.18,0,0,0,41,23.6c-2,2.23-4.18,4.26-6.26,6.39-.31.31-.66.8-1.11.5s-1.26-.66-1.27-1.49c0-1.49,0-3,0-4.48S32.37,21.8,32.3,20.45ZM63.18,63.06c-4,0-8,0-12,0a1.86,1.86,0,0,0-1.45.62c-2.37,2.4-4.77,4.78-7.15,7.17-.19.19-.4.37-.59.55-.32-.15-.22-.4-.22-.6,0-2.63,0-5.26,0-7.89,0-.54.13-.8.74-.8q10.88,0,21.75,0c.13,0,.28,0,.39.14A1.54,1.54,0,0,1,63.18,63.06Z"/><path class="cls-4" d="M98.71,75.47a1.68,1.68,0,0,1,1.18-1.76v-.83a.89.89,0,0,0-.62.38,2.39,2.39,0,0,1-2.48.95,1.8,1.8,0,0,0-1.68.69c-.53.6-1.14,1.13-1.69,1.7s-.81.52-1-.18c-.21-.86-.69-1.66-.8-2.5a4.22,4.22,0,0,0-2.27-3,23.91,23.91,0,0,1-4.48-4,3.83,3.83,0,0,0-1-.84c-.14-.07-.33-.16-.26-.36s.27-.17.43-.17c.86,0,1.71,0,2.57,0a1.62,1.62,0,0,0,1.53-.63,4.33,4.33,0,0,1,4.16-1.75,4,4,0,0,1,3.18,1.32c1.12,1.29,2.4,2.44,3.61,3.65a1.47,1.47,0,0,0,.8.56V61.58c-1.5,0-3,0-4.49,0-.6,0-.85-.21-.84-.82,0-1.61,0-3.21,0-4.82,0-.28,0-.59.21-.78.66-.52.62-1.23.62-2q0-8.84,0-17.69a3.29,3.29,0,0,1,.36-1.75c.36-.63.12-1.41.14-2.13,0-1.14,0-1.14,1.17-1.14h2.82v-.83H96.24a2.61,2.61,0,0,1-2.34-2.32c0-1.21,0-2.43,0-3.64a6.85,6.85,0,0,0-.35-2.15,2.44,2.44,0,0,1,.57-2.86c1.49-1.31,2.85-2.77,4.23-4.2a1.71,1.71,0,0,1,1.54-.61V10.08c-.53-.32-.33-.85-.3-1.28a2,2,0,0,0-.83-1.94A2.92,2.92,0,0,1,97.55,4c.1-1.29,0-2.59,0-3.88H94.24a18.72,18.72,0,0,0-.14,3.3c.13,1-.15,2-.06,3.05a.43.43,0,0,1-.3.45,3,3,0,0,0-.88.75L75.63,24.92c-.36.36-.67,1.09-1.35.34-.07-.07-.27,0-.4,0-3.73,0-7.47,0-11.2,0-.6,0-.89.2-.84.81H74.63a1.14,1.14,0,0,1-1,.33c-2.65,0-5.3,0-8,0a10.76,10.76,0,0,1-3.12,0c-.26-.07-.56,0-.69-.35a13.8,13.8,0,0,0-1.52,1.4,2.89,2.89,0,0,0-1.24,2.83,45.9,45.9,0,0,1,0,6.05,1.86,1.86,0,0,0,.61,1.46c2.67,2.65,5.31,5.33,8,8A1.62,1.62,0,0,1,68.26,47c-.05,1.65-.12,3.31-.08,5,0,.88.08,1.77.08,2.65,0,1.49,0,3,0,4.47,0,.56.24.8.8.79,1.16,0,2.32,0,3.48,0a1.4,1.4,0,0,1,1.1.45q7.44,7.46,14.91,14.9A1.42,1.42,0,0,1,89,76.34c0,1.63,0,3.26,0,4.89a3.27,3.27,0,0,0,2.33,2.44c2.46,0,4.92,0,7.38,0C98.73,80.91,98.75,78.19,98.71,75.47ZM94.57,53.61a1.63,1.63,0,0,1-.5,1.42,1.24,1.24,0,0,0-.33,1.07c0,1.8,0,3.6,0,5.4,0,.68-.23,1-.91.91-.11,0-.22,0-.33,0a4.14,4.14,0,0,0-4.4,1.73,1.13,1.13,0,0,1-1,.44q-2,0-3.9,0c-.4,0-.74-.1-.83-.52-.36-1.6-1.77-2.34-2.8-3.39a4.61,4.61,0,0,0-3.28-1.51A.31.31,0,0,1,76,59c-1.13-1.59-2.86-1.16-4.39-1.28-1.31-.1-1.27,0-1.33-1.34-.12-2.49.34-3,2.79-2.8A4.26,4.26,0,0,0,77,52c1.54-1.74,3.25-3.33,4.91-4.95a2,2,0,0,0,.68-1.69c0-.83,0-1.66,0-2.49a2.42,2.42,0,0,1,.83-2c1-.95,1.9-1.94,2.89-2.86a2.24,2.24,0,0,0,.8-1.89c-.06-1.26.23-1.49,1.5-1.49,1.69,0,3.38,0,5.07,0,.69,0,.92.25.91.92,0,3.07,0,6.15,0,9.22S94.56,50.67,94.57,53.61ZM66.75,40.16a1.31,1.31,0,0,1-1.11-.45l-.06-.06a5.11,5.11,0,0,1-2.27-5.27,19.62,19.62,0,0,0,0-3.32A.93.93,0,0,1,64.17,30c.83-.21,1.68-.3,2.51-.49a2.11,2.11,0,0,1,1.59.25A1.41,1.41,0,0,0,69,30c1.58-.23,3.18.22,4.75-.23a5,5,0,0,0,1.86-1,3.17,3.17,0,0,1,1.06-.62c.91-.3.91-.33.91.62,0,1.36,0,2.71,0,4.07a3.13,3.13,0,0,0,2.91,2.87c1.55,0,3.1,0,4.65,0,.36,0,.87-.17,1,.32a1.47,1.47,0,0,1-.19,1.5c-1.23,1.27-2.5,2.51-3.75,3.76a1.21,1.21,0,0,1-.94.24c-1.33,0-2.66,0-4,0a1.55,1.55,0,0,1-1.38-.6,2,2,0,0,0-1.82-.74c-1.16,0-2.32,0-3.49,0h0C69.35,40.15,68,40.15,66.75,40.16Zm22.09-6.32a2,2,0,0,0-1.85.68,1.11,1.11,0,0,1-1,.32c-1.94,0-3.87,0-5.81,0a1.73,1.73,0,0,1-1.73-1.73c0-1.85,0-3.71,0-5.56a1.22,1.22,0,0,1,.6-1.09,8.23,8.23,0,0,0,2.54-2.21,1.17,1.17,0,0,1,1.81,0c1.23,1.2,2.45,2.41,3.64,3.64a1.83,1.83,0,0,0,1.46.61c1.38,0,2.77,0,4.15,0a2.59,2.59,0,0,1,2.4,2.36c0,.72,0,1.44,0,2.16s-.25.84-.84.82c-1,0-2,0-3,0h0C90.45,33.85,89.64,33.87,88.84,33.84ZM73.71,41.13c1,0,1.94,0,2.59.9.21.3.58.27.92.27,1.19,0,2.38,0,3.57,0,.6,0,.89.2.83.82a.65.65,0,0,0,0,.17,5.4,5.4,0,0,1-2.23,5.54,37,37,0,0,0-3.48,3.44,1.49,1.49,0,0,1-1.25.52,3.4,3.4,0,0,0-.91,0c-1.67.33-2.78-.52-3.73-1.73-.09-.11-.26-.25-.23-.32.32-.86-.38-1.73,0-2.58.11-.23.23-.52,0-.71-.74-.76-.56-1.76-.67-2.66A2.91,2.91,0,0,0,67.24,42c-.27-.09-.67-.25-.61-.59s.5-.25.77-.25c1.22,0,2.43,0,3.65,0h0C71.94,41.14,72.82,41.16,73.71,41.13Zm12.1-15.28A11.39,11.39,0,0,0,84,24.15a1.55,1.55,0,0,1-.14-2.61C84.92,20.49,86,19.44,87,18.37a1.5,1.5,0,0,1,1.18-.49c1,0,1.94,0,2.9,0a1.44,1.44,0,0,1,1.44,1.23c0,2.46.81,4.86.55,7.36-.13,1.21,0,1.22-1.27,1.22H90.25C88.31,28.19,87,27.28,85.81,25.86Zm6.27-12.18c0-.62-.07-1.24.68-1.5a.22.22,0,0,0,.11-.12c.39-1,1.25-1.71,1.71-2.67s.77-1.7,1.15-2.56,1-.92,1.75-.41c1.48,1,1.32,2.48,1.18,3.93a6.39,6.39,0,0,0,0,2.05,1.41,1.41,0,0,1-.44,1.42c-1.32,1.29-2.63,2.61-3.92,3.93-.36.36-.76.63-1.24.4a1.45,1.45,0,0,1-1-1.24c0-.66,0-1.33,0-2h0C92.09,14.51,92.1,14.09,92.09,13.68Zm5.66,64.86c.08.8-.08,1.38-1,1.62-.51.13-.93.73-1.52.4a4.23,4.23,0,0,1-2.19-2.17.72.72,0,0,1,.24-.81l2.17-2.17c.58-.57,1.29-.37,2-.29.3,0,.31.36.31.61,0,.61,0,1.22,0,1.83C97.74,77.87,97.71,78.21,97.74,78.54ZM91.23,16.38c0,.34-.21.49-.53.5a1.52,1.52,0,0,1-.33,0,4.47,4.47,0,0,0-4.7,2,13.37,13.37,0,0,1-1.46,1.47c-.13.12-.27.35-.48.17s-.07-.37,0-.53a7.09,7.09,0,0,1,1.07-1.36c.51-.42,1-1.08,1.48-1.26,1.5-.51,2.31-2.06,3.9-2.35.43-.08.49-.57.92-.86A9.25,9.25,0,0,1,91.23,16.38Z"/><path class="cls-2" d="M30.28,17.9l-.25.52c-.54,1.05-1.26,1.82-2.59,1.62a2,2,0,0,0-1.88.8,15.62,15.62,0,0,1-1.29,1.29,1.12,1.12,0,0,1-1.17.19c-.41-.14-.29-.55-.3-.86,0-.53,0-1.05,0-1.58a2,2,0,0,0-2-2c-2.1,0-4.21.06-6.31,0a4.85,4.85,0,0,1-3.9-2.41,9.34,9.34,0,0,0-2.45-3.07c-.27-.18-.56-.44-.4-.74.64-1.19-.43-1.48-1-2-.35-.31-.73-.25-.87.3-.09.35-.23.63-.65.63q0-1.4,0-2.81a1,1,0,0,0,.69-1.23,1.57,1.57,0,0,1,.54-1.63c1.35-1.31,2.67-2.66,4-4,.23-.23.51-.44.55-.8H27.29a1.08,1.08,0,0,0,1.66,0h.17l.54.62c-.21.33-.46.27-.79.18-.73-.21-1.11.18-1,.92a2.52,2.52,0,0,0,1,1.66A2.78,2.78,0,0,1,30,5a5.66,5.66,0,0,0,1.75,2.85c1,.85,1.76,2,2.77,2.85.32.27.8.6.5,1.1s-.69,1.09-1.38,1.06c-1.56-.08-2.37.89-3.17,2S29.23,16.84,30.28,17.9Z"/><path class="cls-2" d="M63.17,20.22v-.32q0-6.13,0-12.25c0-.33,0-.69-.46-.74a30,30,0,0,1,2.7-2.84c.53-.59,1.13-1.11,1.69-1.67.53.2,1.07.31,1,1.12-.05.61.6.76,1,1s.45-.35.67-.56a3.65,3.65,0,0,1,.72-.55A7.37,7.37,0,0,0,72,2.19c.68-.64,1-1.53,1.8-2.08h5.81c.57,1.11,1.66,1.75,2.43,2.68a1.76,1.76,0,0,0,1.52.65c1.3,0,2.6,0,3.9,0,1.55,0,1.58,0,1,1.5-.26.68-.75,1.31-.36,2.12.11.22-.11.22-.29.25a4.19,4.19,0,0,0-3.44,2.23c-.6,1.42-2.17,1.84-2.78,3.16,0,.1-.24.13-.36.18a4.4,4.4,0,0,0-2.57,2.54,4.58,4.58,0,0,1-1.77,2.14c-1.3.8-2.31,2-3.63,2.76a.73.73,0,0,0-.28.3c-.54,1.19-1.52,1.2-2.59,1-.44-.09-1-.19-1.26.16-.54.72-.79.69-1.51.08a15.31,15.31,0,0,1-1.9-1.5c-.18-.21-.47-.4-.64-.22C64.46,20.78,63.81,20.3,63.17,20.22Z"/><path class="cls-4" d="M60.5,16.62c0,.57.06,1-.82,1a1.68,1.68,0,0,0-1.4,2.55.77.77,0,0,1,.07.7,1.54,1.54,0,0,0,0,1.36c.07.15.13.33,0,.46s-.36,0-.5-.13a2.37,2.37,0,0,1-1-2q.08-5.56,0-11.12a2.32,2.32,0,0,1,.95-2.07A26.14,26.14,0,0,0,61.36,4a3.43,3.43,0,0,1,3.31-1.36,3.47,3.47,0,0,0,.84-.82l-.82,0C63.13,1.76,63,1.66,63,.11H62c0,.52-.25.67-.72.66-.75,0-1.49,0-2.24,0A1.21,1.21,0,0,0,57.7,2.12c0,1.22,0,2.44,0,3.65a1.66,1.66,0,0,1-.64,1.53A2.6,2.6,0,0,0,56,9.82c.08,1,0,2.1,0,3.15,0,.52-.19.77-.73.76-.94,0-1.88,0-2.82,0a1.51,1.51,0,0,1-1.13-.6C49.26,11,47.16,9,45.09,6.85a2,2,0,0,0-1.81-.76A2.68,2.68,0,0,1,40.75,5C39.4,3.58,37.95,2.2,36.54.79a1.27,1.27,0,0,1-.44-.68H31.44c.28.31.54.63.83.92,3.6,3.6,7.17,7.22,10.83,10.76a3.76,3.76,0,0,1,1.45,3.53,1.2,1.2,0,0,0,.38,1.29,4.13,4.13,0,0,1,1.78,4.3c-.09.59.2.86.82.84.3,0,.78-.11.78.37s-.5.37-.83.42-.68,0-.72.39c-.06.59-.18,1.19.36,1.7,1,.91,1.89,1.86,2.83,2.8a1,1,0,0,0,.73.33l6.46.05a1.08,1.08,0,0,0,.86-.21l2.39-2.42c.19-.2.15-.46.17-.71.15-2.4,0-4.78.32-7.2.43-3.18.1-6.46.11-9.69,0-.34-.08-.6-.47-.65Q60.51,11.77,60.5,16.62Zm-9.13,4.31c0,.33,0,.69-.44.76a.72.72,0,0,1-.83-.51,4.29,4.29,0,0,1-.34-1.86A5.57,5.57,0,0,0,48.57,16a9.54,9.54,0,0,1-1.24-2.61,7.15,7.15,0,0,0-1.65-2.55,2.3,2.3,0,0,1-.61-1,2.9,2.9,0,0,0-1.57-2c-.24-.13-.56-.28-.48-.6s.5-.23.78-.26a1.07,1.07,0,0,1,.89.36q3.14,3.14,6.29,6.27a1.35,1.35,0,0,1,.41,1c0,1.05,0,2.1,0,3.15h0C51.37,18.82,51.38,19.87,51.37,20.93Z"/><path class="cls-4" d="M14.83,47.28c0-.9.15-1,1-.9,1.65.17,3.3.07,4.95.08A3.61,3.61,0,0,1,24.43,45c.4.07.66-.23.92-.48l7-7c.17-.17.46-.35.41-.59-.21-1,.26-2,0-3-.2-.85-.08-1.46.89-1.65,0,0,.06-.09.08-.13l-.18.17c-.48-.57-1-1.14-1.43-1.72a2,2,0,0,0-1.74-.72c-3,0-6.09,0-9.13,0-.25,0-.58-.06-.72.07-.41.37-.64.17-.94-.13q-8.1-8.11-16.21-16.2A1.15,1.15,0,0,1,3,12.73Q3,6.42,3,.11H.21C.22,4,.27,7.8.22,11.65A3.15,3.15,0,0,0,1.4,14.56c2.29,1.75,3.71,4.31,5.71,6.34.52.53.92,2.13.46,2.69a41.24,41.24,0,0,1-4.49,4.53C1.82,28,1.37,29.2.49,29.7a.41.41,0,0,0-.14.64c.2.26.46.11.65-.06s.59-.58.89-.87c.13-.13.26-.33.48-.23s.16.33.16.52c0,1.25,0,2.49,0,3.74a2.09,2.09,0,0,0,.69,1.68C6.6,38.47,10,41.85,13.33,45.2a2,2,0,0,1,.67,1.6c0,2.16,0,4.32,0,6.48l1-1C15.06,50.63,14.74,49,14.83,47.28ZM30.3,31c-1.16-.13-2.31.29-3.46.05a.35.35,0,0,0-.41.21c-.06.14,0,.26.13.36.79.78,1.33,1.8,2.52,2.2a1.4,1.4,0,0,1,.4,2.49c-.52.45-.94.91-.77,1.66,0,.05,0,.11,0,.16.12.61,0,.61-.71.92a9.22,9.22,0,0,0-2.75,1.75,7.1,7.1,0,0,1-2.39,1.4A5.71,5.71,0,0,0,21.3,43c-.89.71-2.06,1.09-2.62,2.21-.14.29-.45.28-.73.29-1,0-1.94,0-2.91,0a1.43,1.43,0,0,1-1.1-.47Q9,40,4,35.09a1.61,1.61,0,0,1-.5-1.26q0-2.24,0-4.48A1.6,1.6,0,0,1,4,28.09c1.21-1.18,2.39-2.39,3.59-3.57a1.21,1.21,0,0,1,2.08.16A13.7,13.7,0,0,1,10.56,26c.81,1.42,2.29,2.13,3.37,3.26s2.44,1.92,3.52,3c.66.68,1.52.41,2.2.83.39.24.85.38,1.24.64a1.26,1.26,0,0,0,1.78-.23c.65-.78.57-1-.36-1.41-.64-.26-1-.91-1.75-1.07-.19,0-.11-.28.1-.33a1.74,1.74,0,0,1,.41,0h9.47c.17,0,.39-.07.52.17C30.85,31.12,30.55,31,30.3,31Z"/><path class="cls-2" d="M62,.11c0,.52-.25.67-.72.66-.75,0-1.49,0-2.24,0A1.21,1.21,0,0,0,57.7,2.12c0,1.22,0,2.44,0,3.65a1.66,1.66,0,0,1-.64,1.53A2.6,2.6,0,0,0,56,9.82c.08,1,0,2.1,0,3.15,0,.52-.19.77-.73.76-.94,0-1.88,0-2.82,0a1.51,1.51,0,0,1-1.13-.6C49.26,11,47.16,9,45.09,6.85a2,2,0,0,0-1.81-.76A2.68,2.68,0,0,1,40.75,5C39.4,3.58,37.95,2.2,36.54.79a1.27,1.27,0,0,1-.44-.68Z"/><path class="cls-2" d="M99.89,61.58c-1.5,0-3,0-4.49,0-.6,0-.85-.21-.84-.82,0-1.61,0-3.21,0-4.82,0-.28,0-.59.21-.78.66-.52.62-1.23.62-2q0-8.84,0-17.69a3.29,3.29,0,0,1,.36-1.75c.36-.63.12-1.41.14-2.13,0-1.14,0-1.14,1.17-1.14h2.82Z"/><path class="cls-4" d="M63.17,20.22c.64.09,1.29.57,1.92-.1.17-.18.46,0,.64.22a15.31,15.31,0,0,0,1.9,1.5c.72.61,1,.65,1.51-.08.26-.35.82-.25,1.26-.16,1.07.22,2,.2,2.59-1a.73.73,0,0,1,.28-.3c1.32-.77,2.33-2,3.63-2.76a4.58,4.58,0,0,0,1.77-2.14,4.4,4.4,0,0,1,2.57-2.54c.13,0,.32-.08.36-.18.61-1.32,2.17-1.74,2.78-3.16a4.19,4.19,0,0,1,3.44-2.23c.18,0,.39,0,.29-.25-.39-.8.1-1.43.36-2.12.56-1.47.54-1.5-1-1.5-1.3,0-2.6,0-3.9,0A1.76,1.76,0,0,1,82,2.79c-.77-.93-1.86-1.57-2.43-2.68h.83c.27.77,1,1.14,1.48,1.73a2,2,0,0,0,1.8.77c1.43-.05,2.86,0,4.29,0,2.17,0,1.84.23,1.88-1.91,0-.19,0-.39,0-.58h2c0,1.88,0,3.76,0,5.64a1.46,1.46,0,0,1-.68,1.44c-1.45,1-2.43,2.45-3.67,3.66C85.78,12.56,84,14.27,82.29,16c-2.34,2.39-4.72,4.73-7.05,7.13a1.77,1.77,0,0,1-1.39.57c-3.26,0-6.53,0-9.79,0-.74,0-1-.24-.93-1S63.16,21.07,63.17,20.22Z"/><path class="cls-2" d="M99.89,72.88a.89.89,0,0,0-.62.38,2.39,2.39,0,0,1-2.48.95,1.8,1.8,0,0,0-1.68.69c-.53.6-1.14,1.13-1.69,1.7s-.81.52-1-.18c-.21-.86-.69-1.66-.8-2.5a4.22,4.22,0,0,0-2.27-3,23.91,23.91,0,0,1-4.48-4,3.83,3.83,0,0,0-1-.84c-.14-.07-.33-.16-.26-.36s.27-.17.43-.17c.86,0,1.71,0,2.57,0a1.62,1.62,0,0,0,1.53-.63,4.33,4.33,0,0,1,4.16-1.75,4,4,0,0,1,3.18,1.32c1.12,1.29,2.4,2.44,3.61,3.65a1.47,1.47,0,0,0,.8.56Z"/><path class="cls-2" d="M99.89,29.68H96.24a2.61,2.61,0,0,1-2.34-2.32c0-1.21,0-2.43,0-3.64a6.85,6.85,0,0,0-.35-2.15,2.44,2.44,0,0,1,.57-2.86c1.49-1.31,2.85-2.77,4.23-4.2a1.71,1.71,0,0,1,1.54-.61Z"/><path class="cls-2" d="M91.82,86v-.16h8.08v6a2.28,2.28,0,0,1-2.33-2.35c0-.77,0-1.55,0-2.32,0-.31.08-.75-.4-.76s-.43.42-.43.73c0,1,0,2,0,3.06a.85.85,0,0,1-1.39.77c-.49-.3-1.09-.4-1.47-.9a.38.38,0,0,0-.64,0c-.13.14-.24.49-.49.21s0-.48.23-.61.64-.45.6-.9a2.68,2.68,0,0,1,.37-1.42c.37-.77.24-1-.64-1C92.78,86.33,92.24,86.44,91.82,86Z"/><path class="cls-4" d="M91.82,86c.42.44,1,.32,1.48.34.87,0,1,.22.64,1a2.68,2.68,0,0,0-.37,1.42c0,.46-.25.69-.6.9s-.44.37-.23.61.36-.06.49-.21a.38.38,0,0,1,.64,0c.38.49,1,.6,1.47.9a.85.85,0,0,0,1.39-.77c0-1,0-2,0-3.06,0-.32-.06-.75.43-.73s.4.45.4.76c0,.77,0,1.55,0,2.32a2.28,2.28,0,0,0,2.33,2.35v.66h-6.3a1.63,1.63,0,0,1-1.8-1.75C91.79,89.15,91.81,87.58,91.82,86Z"/><path class="cls-4" d="M94,99.74l.12-4.61,5.76,0v3.32l-1.1-.37c-.8-.27-1.2,0-1.2.78s-.24.93-.93.89C95.78,99.71,94.89,99.74,94,99.74Z"/><path class="cls-2" d="M89.92.11c0,.19,0,.39,0,.58,0,2.14.29,1.88-1.88,1.91-1.43,0-2.86,0-4.29,0a2,2,0,0,1-1.8-.77c-.47-.6-1.21-1-1.48-1.73Z"/><path class="cls-4" d="M11,.11c0,.36-.32.57-.55.8-1.33,1.33-2.64,2.68-4,4a1.57,1.57,0,0,0-.54,1.63,1,1,0,0,1-.69,1.23q0-3.83,0-7.65Z"/><path class="cls-2" d="M99.89,10.08c-.53-.32-.33-.85-.3-1.28a2,2,0,0,0-.83-1.94A2.92,2.92,0,0,1,97.55,4c.1-1.29,0-2.59,0-3.88.78,0,1.85-.3,2.24.09s.09,1.47.09,2.24Z"/><path class="cls-4" d="M73.8.11C73,.66,72.68,1.56,72,2.19a7.37,7.37,0,0,1-1.48,1.17,3.65,3.65,0,0,0-.72.55c-.22.2-.23.77-.67.56s-1.06-.35-1-1c.07-.8-.48-.92-1-1.12.58-.85,1.56-1.34,2-2.28Z"/><path class="cls-2" d="M98.74,83.63c0-2.72,0-5.44,0-8.16a1.68,1.68,0,0,1,1.18-1.76v10Z"/><path class="cls-4" d="M99.89,85.84H91.81A2.2,2.2,0,0,1,91,85h8.89Z"/><path class="cls-2" d="M65.51,1.78l-.82,0C63.13,1.76,63,1.66,63,.11h4.15A8.69,8.69,0,0,1,65.51,1.78Z"/><path class="cls-4" d="M93.8,94.66,93.1,94l.08-.21h6.71v.83Z"/><path class="cls-2" d="M93.8,94.66l6.09,0v.5l-5.76,0Z"/><path class="cls-4" d="M28.95.11a1.08,1.08,0,0,1-1.66,0Z"/><path class="cls-4" d="M34.88,99.76c.54,0,.79-.21.72-.73a1.74,1.74,0,0,1,.68-1.51c2.79-2.77,5.55-5.56,8.35-8.33a1.83,1.83,0,0,0,.61-1.46c0-1,0-2,0-3a1.73,1.73,0,0,1,.57-1.39,56.26,56.26,0,0,0,4.15-4.19,5,5,0,0,1,4.82-2c1.07.14,1.1,0,1.1,1.15,0,4.23,0,8.47,0,12.7a1.87,1.87,0,0,0,.6,1.47c1.51,1.47,3,3,4.47,4.45.64.64,1.41,1.18,1.12,2.29-.08.31.14.51.49.5a.43.43,0,0,0,.47-.46,1.81,1.81,0,0,0-.5-1.59C60.73,96,59,94.21,57.26,92.48a1.63,1.63,0,0,1-.58-1.22q0-6.35,0-12.7c0-.64.23-.89.88-.87,1.36,0,2.71,0,4.07,0,1.81,0,1.8,0,2.51,1.68.2.47.78.93-.26,1.1-.19,0-.18.32-.19.51a1.61,1.61,0,0,0,.61,1.39,4.48,4.48,0,0,1,1.21,1.86c.09.23.17.54.35.64,1.25.74,1.13,2.15,1.37,3.24a13.86,13.86,0,0,1,.28,4.34,1.66,1.66,0,0,0,.12,1.06c.51.8.18,1.41-.39,2s-.78,1-.24,1.58a.57.57,0,0,1,.09.55,2,2,0,0,0,.44,1.86c.77-.75,1.5-1.56,2.33-2.24a1.58,1.58,0,0,0,.62-1.41c0-3.79,0-7.58,0-11.37a2.82,2.82,0,0,1,.1-1.06.86.86,0,0,0-.27-1.08c-2-2-4-4-6-6-.19-.19-.41-.46-.64-.49-.66-.09-.68-.52-.68-1,0-2.66,0-5.31,0-8a2.8,2.8,0,0,1,.61-2.39H51c-.56,0-.61.36-.64.76l11.43.05c.29,0,.6-.11.86.11,0,.24-.19.35-.32.31-.82-.27-1.63.16-2.46,0s-1.26.25-.86,1.12c.21.47-.08.58-.39.59-1.57,0-3.15.07-4.72,0-.66,0-1.1-.67-1.37-1.22s-.56-.56-1-.46-.95.25-1.25-.3c-1.09,1.06-2.19,2.11-3.27,3.18-1.49,1.48-3,3-4.45,4.47-.26.26-.45.6-.87.06a.57.57,0,0,0-1,.29,1.61,1.61,0,0,1-.51.74l-5.34,5.33q-2.9,2.91-5.79,5.83c-.25.25-.66.48-.48,1a4,4,0,0,1,.1,1.48c0,2.82,0,5.64,0,8.46a1.88,1.88,0,0,0,.61,1.46,19.37,19.37,0,0,1,2.07,2.13C32.44,99.75,33.66,99.74,34.88,99.76Zm16-22.29c-1.77,1.86-3.63,3.64-5.44,5.48a1.75,1.75,0,0,1-1.39.58c-1.16,0-2.32,0-3.48,0a1.34,1.34,0,0,1-1.06-.37c-.83-.85-1.68-1.69-2.51-2.54-.15-.15-.36-.31-.24-.56s.33-.16.51-.19a1.93,1.93,0,0,0,1.63-2.55c-.09-.38-.57-.73-.23-1.14a1.81,1.81,0,0,1,1.44-.5,7.94,7.94,0,0,0,4.12-1.47,2.44,2.44,0,0,1,.84-.32,1.72,1.72,0,0,0,1.41-2.37,2,2,0,0,1,.5-2.37,19,19,0,0,1,1.51-1.54,1.12,1.12,0,0,1,.81-.37.81.81,0,0,0,.68-.23,1.58,1.58,0,0,1,2-.28,1.8,1.8,0,0,1,1.23,1.79c0,.05,0,.11,0,.17a3.66,3.66,0,0,0,1.59,3.87,1.4,1.4,0,0,1,.58,1.38c0,.19,0,.39,0,.58,0,2.1.24,1.83-2.06,1.85C52.35,76.11,51.59,76.67,50.83,77.47ZM33.1,97.58a2.67,2.67,0,0,1-1.21-2.2c.08-1.15-.72-2.27-.41-3.39.37-1.32-.11-2.56,0-3.83a1.87,1.87,0,0,1,.66-1.34,10.35,10.35,0,0,1,2.42-2.18c.23-.12.24-.42.28-.67a1,1,0,0,1,.84-.92c.64-.14.89-.5.7-1.14-.06-.21-.12-.46.13-.6s.41.08.56.23c.77.76,1.54,1.51,2.29,2.28a1.56,1.56,0,0,0,1.25.52c1,0,2,0,3.07,0,.56,0,.8.21.79.78q0,1.45,0,2.9a1.5,1.5,0,0,1-.58,1.14l-8.1,8.09a2.36,2.36,0,0,0-1,1.93C34.25,98.3,33.59,98,33.1,97.58ZM59.89,68c.72-.29,1.7.93,1.53,1.81a7.43,7.43,0,0,0-.14,1.55c0,.63,0,1.3-.87,1.59a1.05,1.05,0,0,0-.61,1.45,3.63,3.63,0,0,0,.84,1.77c.35.3.33.58-.23.58H56.82c-.4,0-.63-.18-.63-.6a2.94,2.94,0,0,1,0-.41,4.13,4.13,0,0,0-1.73-4.32c-.44-.31-.62-2.48-.34-2.92.16-.25.42-.23.67-.24h2.15A9.66,9.66,0,0,0,59.89,68Z"/><path class="cls-4" d="M73.12,99.74a2,2,0,0,0,2.18-2c0-.34-.12-.77.36-.91a1.07,1.07,0,0,1,1.12.35c.72.73,1.45,1.45,2.17,2.17.28.28.56.51,1,.28,0-.06,0-.1,0-.12l-2.32-2.37c-.21-.21-.53-.43-.35-.77a3.62,3.62,0,0,1,2.1-1.86,3,3,0,0,0,1.46-.81c.46-.48.93-.95,1.41-1.41a2.76,2.76,0,0,1,3.32,0c1.24,1.23,2.44,2.49,3.7,3.7a2.09,2.09,0,0,1,.7,1.68c0,2.08,0,2.08,2,2.05a41.45,41.45,0,0,1-.08-5,1.89,1.89,0,0,0-.75-1.79,3.43,3.43,0,0,1-1.52-3.66c.16-1.31-.24-2.66.07-4a.87.87,0,0,0-.25-.92c-.6-.7-1.52-1.12-1.76-2.13-.06-.24-.36-.21-.58-.21L75.32,82a.67.67,0,0,0-.69.44,2.57,2.57,0,0,1-1.9,1.65c-.18,0-.35.09-.23.31a4.56,4.56,0,0,1,.14,2.36q0,4.81,0,9.62c0,.22,0,.38-.22.54a13.57,13.57,0,0,0-2.87,2.71A31.17,31.17,0,0,0,73.12,99.74Zm11.33-9.4c0,.45-.23.7-.67.63a2.15,2.15,0,0,0-2,.92c-.44.5-.93.95-1.41,1.41-.18.18-.37.37-.65.27s-.29-.4-.26-.63a2.08,2.08,0,0,0-.82-1.87c-1.1-1-2.16-2.14-3.23-3.23-.61-.63-.53-.8.18-1.34a7.45,7.45,0,0,1,4.17-1.15,2.54,2.54,0,0,0,1.86-.75,3.65,3.65,0,0,1,2.82-.2c.13.08.22.16.18.32A38.68,38.68,0,0,0,84.44,90.34Zm-9.1,5.46c-.56-.08-.6-.45-.51-.84a1.41,1.41,0,0,0-.32-1.38,1,1,0,0,1-.19-.86,18.24,18.24,0,0,1,.26-2.45,1.78,1.78,0,0,0-.15-1.45c-.13-.25-.24-.59,0-.77s.47.15.65.32c.93.9,1.83,1.85,2.78,2.73a1.84,1.84,0,0,1,.77,1.75A2.88,2.88,0,0,1,75.35,95.79Zm11.51-5c-.16.63.32,1.08.55,1.6.1.22.3.5.07.68s-.41-.15-.6-.28l-.06-.06C85.75,91.91,85,91,85.38,89.4a13.15,13.15,0,0,0,0-3c0-1.17,0-1.17,1-.68.68.32.74.39.67.85A13.1,13.1,0,0,1,86.86,90.84Z"/><path class="cls-4" d="M7.53,99.77c2.39.29,4.48-.13,5.9-2.3a.66.66,0,0,1,.12-.11,2.65,2.65,0,0,1,1.95-.73,48,48,0,0,0,5.63,0,4.71,4.71,0,0,1,4.71,2,2.8,2.8,0,0,0,3.21,1.06,17.93,17.93,0,0,0-2.2-2.25A1.64,1.64,0,0,1,26.27,96c.23-2.51-.08-5,0-7.54a2.39,2.39,0,0,1,.84-2.21c-1.56,0-2.88,0-4.2,0a1.34,1.34,0,0,1-1.23-.52,3.16,3.16,0,0,0-3.31-1.33,9.54,9.54,0,0,1-1.16,0,.91.91,0,0,0-.55.13,3.28,3.28,0,0,1-3.64,0,.46.46,0,0,0-.6,0c.37.56,1,.93.95,1.7,0,1.63,0,3.26,0,4.9,0,.27.05.56-.28.71a4.1,4.1,0,0,0-1.12,1C10.27,94.42,8.64,96.07,7,97.71c-.16.15-.42.55-.55.33-.6-1-1.45-.29-2.17-.46.48.68,1.16,1.22.87,2.16A21.47,21.47,0,0,1,7.53,99.77Zm8.38-4c-1,0-1.53-.82-.9-1.68a5.37,5.37,0,0,0,1-3,2.66,2.66,0,0,1,1.47-2.58,2,2,0,0,1,1.84.15c1.06.52,1.79,1.67,3.13,1.64a.74.74,0,0,1,.67.55c.35.9.72,1.79,1,2.71a1.84,1.84,0,0,1-1.63,2.18H15.91Z"/><path class="cls-4" d="M10.83,56.42A41.61,41.61,0,0,1,7,60.3a4.57,4.57,0,0,0-1.62,3.89c.13,4.48,0,9,.07,13.45a1.74,1.74,0,0,1-.78,1.61,15.94,15.94,0,0,0-1.59,1.45c-.36-.63-.53-1.2.22-1.72.32-.22.24-.65.28-1,.16-1.66-1.38-2.73-1.38-4.31,0-.31-.27-.39-.54-.4H.8c-.23,0-.54.1-.54-.31a.48.48,0,0,1,.52-.51l1.49,0c.27,0,.58,0,.69-.31a.7.7,0,0,0-.27-.74c-.64-.6-1.29-1.21-1.95-1.79a1.5,1.5,0,0,1-.52-1.24c0-1.94,0-3.87,0-5.81,0-.69.24-.91.91-.91,1.46,0,1.78-.23,2.12-1.64a2.78,2.78,0,0,1,1.46-1.71c1-.58,1.45-1.76,2.6-2.1.11,0,.18-.2.25-.32.71-1.13.8-1.17,2-.83.51.14,1,.28.77,1C10.31,56.27,10.55,56.38,10.83,56.42Z"/><path class="cls-4" d="M9.25,82.33l1.42,1.39c.12.11.24.23.21.43-.39,2.28-.08,4.57-.16,6.86a1.87,1.87,0,0,1-.56,1.4C9,93.47,8,94.59,6.86,95.67a3.14,3.14,0,0,1-3.36,0C2.45,94.63,1.41,93.56.36,92.5a1.87,1.87,0,0,1,3,.33,2,2,0,0,0,2.62.6,1.75,1.75,0,0,1,1.2-.36,1.16,1.16,0,0,0,1.24-1.28.76.76,0,0,1,.32-.72c1.14-.62.65-1.59.56-2.47,0-.16-.19-.38-.13-.46.66-.91.08-1.5-.47-2.16-.35-.43-.12-1,0-1.43C9,83.82,8.66,83,9.25,82.33Z"/><path class="cls-4" d="M.31,94.71a29.89,29.89,0,0,1,2.41,2.35c.1.09.22.22.13.35-.51.73-.16,1.54-.24,2.31-2.36.13-2.37.13-2.36-2.19C.26,96.59.29,95.65.31,94.71Z"/><path class="cls-4" d="M.24,85a31,31,0,0,0,3-2.89c.27-.24.52-.5.77-.76a.55.55,0,0,1,.81-.09L.25,85.56C.14,85.45.27,85.19.24,85Z"/><path class="cls-4" d="M1.36,82.39l-1,1.05c0-.55-.07-1.09-.07-1.64,0-.26-.14-.67.37-.65s.76.14.74.67C1.36,82,1.36,82.2,1.36,82.39Z"/><path class="cls-2" d="M14.8,54.73l.49-.49a1.05,1.05,0,0,0,.93-.45,3,3,0,0,1,.85-.65c.35-.17.66-.17.82.23s-.07.57-.39.69-.47.1-.42.41.25.35.44.47c.46.29.93-.09,1.38,0,.94.23,1.33-.28,1.54-1.06.1-.38.28-.73.7-.7.73.05.91-.35,1.08-1a1.39,1.39,0,0,1,2.32-.84,1.38,1.38,0,0,0,1.63.09,2.55,2.55,0,0,1,.76-.31c.32-.08.7-.14.91.19s.52.69.28,1.21A3.85,3.85,0,0,0,29,56.18a3.75,3.75,0,0,1,1.31,1.66A2.4,2.4,0,0,0,32,59.43a1.59,1.59,0,0,1,.62.39c1.27,1,1.91,2.57,3.28,3.46a.66.66,0,0,1,.28.58c0,1.42-.12,1.54-1.59,1.55h-.5c-.84,0-1.16.34-1.18,1.16,0,.61,0,1.22,0,1.83a1.81,1.81,0,0,1-.62,1.54c-.93.87-1.82,1.78-2.7,2.7a1.55,1.55,0,0,1-1.39.58,1.7,1.7,0,0,0-1.53.64c-1,1-2,1.95-2.92,2.95a1.75,1.75,0,0,1-1.4.57c-1.6,0-3.21,0-4.81,0a1.72,1.72,0,0,1-1.46-.61,6.81,6.81,0,0,0-.88-.88,2.1,2.1,0,0,1-.76-1.82c0-4.26,0-8.52,0-12.78,0-.38.13-.85-.21-1.1a2.54,2.54,0,0,1-.78-2.48c0-.47-.22-1.16.71-1,.05,0,.18-.1.18-.14C14.29,55.88,15,55.4,14.8,54.73Z"/><path class="cls-4" d="M37.84,35.68c.41,0,1-.24,1.17.31a1.68,1.68,0,0,1-.29,1.79c-.94.93-1.87,1.87-2.81,2.81l-1.76,1.75c-.22.22-.44.46-.77.44s-1.17.28-1.33-.29a2.31,2.31,0,0,1,.34-2.35c.7-.74,1.44-1.45,2.16-2.18a1.46,1.46,0,0,0,.55-.8c-.46,0-.66.36-.93.63q-3.67,3.67-7.32,7.35c-.29.29-.74.57-.81.91s.51.52.78.8q3.55,3.61,7.13,7.19c2.52,2.52,5.07,5,7.58,7.56a1,1,0,0,0,.81.28l22,0a1.2,1.2,0,0,0,1.34-1.39c0-.55-.13-1.1-.11-1.65a115.08,115.08,0,0,0,0-11.68.84.84,0,0,1,.1-.55c.4-.46.1-.71-.2-1l-7.94-7.91c-.18-.17-.36-.42-.57-.46-.61-.12-.59-.55-.59-1,0-1.63,0-3.27,0-4.9a1.29,1.29,0,0,1,.24-.94c.33-.38.16-.59-.26-.52-1.83.31-3.64-.14-5.47,0a1.49,1.49,0,0,1-1.24-.51c-1.26-1.29-2.54-2.55-3.81-3.82a1.24,1.24,0,0,0-.9-.52c-.89,0-1.77,0-2.66,0a1.06,1.06,0,0,0-.8.37l-5.94,5.92c-.15.15-.39.29-.31.54.41,1.27,0,2.58.23,3.85C36.23,35.67,37,35.65,37.84,35.68Zm-3.1,6.91L39.31,38c.19-.19.53-.45.5-.63-.22-1.5.9-2.74.77-4.21a1.56,1.56,0,0,1,.57-1.47c.59-.48.49-1.21.58-1.84a1.44,1.44,0,0,1,2.18-1.17,11.2,11.2,0,0,1,2.48,2.25c.73.85,1.58,2.08,3.16,1.62a2.05,2.05,0,0,1,1.81.36,13.48,13.48,0,0,1,1.42,1,2.55,2.55,0,0,1,1,1.66c.09,1.12,1,2,1.29,3A12.35,12.35,0,0,1,55.91,41a1.57,1.57,0,0,0,1.47,1.35,1.06,1.06,0,0,1,.87.53,6.67,6.67,0,0,0,2.87,2.52c.88.44.91.64.19,1.37-1.73,1.75-3.46,3.5-5.22,5.23a1.88,1.88,0,0,0-.74,1.66,1.26,1.26,0,0,1-.49,1.09c-.85.83-1.66,1.7-2.54,2.51a2,2,0,0,0-.81,1.8c.07.65-.29.88-.87.68a11.26,11.26,0,0,0-2.85-.44,5,5,0,0,1-2-.49,5.34,5.34,0,0,0-2.33-.43,1.57,1.57,0,0,1-1.21-.39c-.75-.82-1.88-1.32-2.11-2.57a.75.75,0,0,0-.49-.54,8.32,8.32,0,0,1-3-2.45,4.35,4.35,0,0,0-1.21-.86,1,1,0,0,1-.58-1.08s0-.06,0-.08c.3-2.46-.06-4.66-2.33-6.15-.08,0-.1-.17-.24-.42C33.58,44,34.1,43.22,34.74,42.59Zm18.15,14.9q1.22-1.18,2.4-2.41a1.55,1.55,0,0,1,1.18-.49c2.9-.06,2.9-.06,4.95,2l.64.65a1.37,1.37,0,0,1-.74,2.46c-.72.18-1.45.31-2.18.47a1.38,1.38,0,0,1-1,0c-.79-.44-1.72-.21-2.54-.61-.5-.24-1.05.2-1.57.38-1,.36-1.68-.1-1.67-1.24A1.34,1.34,0,0,1,52.89,57.49Zm9.85-3.86a1.73,1.73,0,0,0,0,1.81.81.81,0,0,1-.19,1.12c-.36.26-.53-.24-.78-.42a2.07,2.07,0,0,1-.41-.41,4.31,4.31,0,0,0-4.46-2c-.26,0-.59,0-.7-.29a1.06,1.06,0,0,1,.3-1.13c.94-.93,1.87-1.88,2.81-2.81l1.82-1.81c.22-.21.45-.49.78-.22.76.63,1.58,1.22,1.55,2.5C63.23,51.12,63.34,52.45,62.74,53.63ZM33.92,49.21c0,.34-.18.74-.52.39a19.66,19.66,0,0,0-2.3-1.45,2.83,2.83,0,0,1-1-2.26c0-.58.7-1.18,1.12-1.75.09-.12.26,0,.36.08.76.76,1.53,1.52,2.28,2.3a.53.53,0,0,1,.08.62C33.93,47.83,33.94,48.52,33.92,49.21Zm3-17.38c-.22,0-.46,0-.57-.24a.6.6,0,0,1,.16-.68c1-1,1.92-2,2.91-2.91a.77.77,0,0,1,1.3.48,18,18,0,0,1,0,2.56.86.86,0,0,1-.9.8c-.49,0-1,0-1.49,0Zm.76,3c-.84-.08-1-.3-.57-1,.16-.3.06-.8.51-.88a5.48,5.48,0,0,1,1.72-.16c.68.1.37.74.42,1.17s0,.86-.58.9c-.27,0-.55,0-.83,0S37.88,34.83,37.66,34.81Z"/><path class="cls-4" d="M7.93,61.59c-.12.12-.39.28-.17.46.43.36.26.82.26,1.24q0,7.27,0,14.53a2.12,2.12,0,0,0,.69,1.76c.94.85,1.83,1.77,2.71,2.69a1.73,1.73,0,0,0,1.39.58c1.83,0,3.66.09,5.48,0a3.52,3.52,0,0,1,3.44,1.45,1.39,1.39,0,0,0,1.29.57c1.22,0,2.44,0,3.65,0a1.17,1.17,0,0,0,.9-.32c2.4-2.34,4.79-4.68,7.07-7.13-1-.93-1.91-1.85-2.85-2.78A1.81,1.81,0,0,0,30.69,74c-.78-.11-1-.67-.4-1.22,1.95-1.92,3.92-3.82,5.89-5.72.15-.15.32-.36.57-.21s.08.34.09.53c.09,1.52-.58,3.05,0,4.58.14.35.21.7.66.75.63.07.72.5.72,1,.46-.42,1-.74,1-1.51,0-2.71,0-5.43,0-8.14a4.73,4.73,0,0,1,.06-1.64c.23-.58-.06-.81-.37-1.12L25.65,48c-.23-.23-.59-.43-.62-.76-.06-.7-.48-.77-1-.73-.39,0-.78,0-1.16,0-.23,0-.48,0-.51.31-.08.59-.54.88-.9,1.25-2.06,2.05-4.16,4.06-6.14,6.19a1.05,1.05,0,0,0,.93-.45,3,3,0,0,1,.85-.65c.35-.17.66-.17.82.23s-.07.57-.39.69-.47.1-.42.41.25.35.44.47c.46.29.93-.09,1.38,0,.94.23,1.33-.28,1.54-1.06.1-.38.28-.73.7-.7.73.05.91-.35,1.08-1a1.39,1.39,0,0,1,2.32-.84,1.38,1.38,0,0,0,1.63.09,2.55,2.55,0,0,1,.76-.31c.32-.08.7-.14.91.19s.52.69.28,1.21A3.85,3.85,0,0,0,29,56.18a3.75,3.75,0,0,1,1.31,1.66A2.4,2.4,0,0,0,32,59.43a1.59,1.59,0,0,1,.62.39c1.27,1,1.91,2.57,3.28,3.46a.66.66,0,0,1,.28.58c0,1.42-.12,1.54-1.59,1.55h-.5c-.84,0-1.16.34-1.18,1.16,0,.61,0,1.22,0,1.83a1.81,1.81,0,0,1-.62,1.54c-.93.87-1.82,1.78-2.7,2.7a1.55,1.55,0,0,1-1.39.58,1.7,1.7,0,0,0-1.53.64c-1,1-2,1.95-2.92,2.95a1.75,1.75,0,0,1-1.4.57c-1.6,0-3.21,0-4.81,0a1.72,1.72,0,0,1-1.46-.61,6.81,6.81,0,0,0-.88-.88,2.1,2.1,0,0,1-.76-1.82c0-4.26,0-8.52,0-12.78,0-.38.13-.85-.21-1.1a2.54,2.54,0,0,1-.78-2.48c0-.47-.22-1.16.71-1,.05,0,.18-.1.18-.14-.1-.66.58-1.15.4-1.82C12.43,56.93,10.21,59.3,7.93,61.59ZM19.8,50.53c-.08.25-.11.54-.43.62,0,0-.15-.09-.15-.14,0-.36.29-.48.59-.55a1.45,1.45,0,0,1,0-.16.63.63,0,0,1,.61-.46c.12,0,.23.09.19.21-.1.28-.39.27-.61.36a1.47,1.47,0,0,1-.24.06A.66.66,0,0,1,19.8,50.53ZM13.66,73.74c0,.36.14.87-.43.92s-1.17.29-1.47-.4c-.45-1-1.24-2-1-3.23a1.7,1.7,0,0,0-.25-1,2.07,2.07,0,0,1-.16-1.29s0-.06,0-.08c-.69-1.44.6-3.13-.59-4.51-.25-.3-.07-.7,0-1a2.1,2.1,0,0,0,.12-1.6.35.35,0,0,1,.34-.52,2,2,0,0,0,1.61-.87c.26-.28.55-.62,1-.39a1.27,1.27,0,0,1,.75,1.19c0,1.74,0,3.48,0,5.23q0,.66,0,1.33h0C13.66,69.54,13.67,71.64,13.66,73.74Zm11.6,2.42c.32-.41.79-.71,1.1-1.13a2.67,2.67,0,0,1,2.72-1c.57,0,.87.31.87.88s0,1.38,0,2.07a2.13,2.13,0,0,1-1.4,2.23,7.74,7.74,0,0,0-2.83,2.06,2,2,0,0,1-3.17-.12,3.47,3.47,0,0,0-2.32-1.44,6.41,6.41,0,0,0-2.53-.27c-.43.06-.51-.22-.52-.56s.1-.71.59-.7h3C22.48,78.76,24,77.78,25.26,76.16ZM13.2,75.69a3.14,3.14,0,0,1,3,2.89c0,.27,0,.58-.29.71a.73.73,0,0,1-.82-.24,2.52,2.52,0,0,0-1-.56c-1.16-.37-1.45-.77-1.59-2.06C12.23,75.77,12.65,75.7,13.2,75.69ZM18.11,52a.71.71,0,0,1,.23-.29c.1-.07.23,0,.19.13s-.15.2-.33.43C18.15,52.18,18.09,52.1,18.11,52Z"/><path class="cls-2" d="M65.16,75.21q0-3.49,0-7c.41-.16.4-.55.51-.88.17-.54.25-1.35.75-1.48.76-.19,1-.7,1.33-1.22A1.73,1.73,0,0,1,69,63.93a3.61,3.61,0,0,0,1-.26,1.49,1.49,0,0,1,2.16,1,1.21,1.21,0,0,0,.67.87,2.72,2.72,0,0,1,1,.82.65.65,0,0,0,.72.31c.9-.24,1.16.35,1.23,1a3,3,0,0,0,.93,1.8,5,5,0,0,1,1,1.32,4.33,4.33,0,0,0,2.07,2.07c.51.25.53.41.12.81C78.53,75,77.2,76.28,76,77.64a3,3,0,0,1-2.62,1.07,16.73,16.73,0,0,0-3.06,0c-.8.1-1.86-1.35-1.74-2.12.15-1,.53-2.07-.43-2.86a5.24,5.24,0,0,0-1.65-.92c-.34-.11-.75-.31-.94.14s.2.63.56.76.65.25.55.69a.89.89,0,0,1-.72.72A4.93,4.93,0,0,1,65.16,75.21Z"/><path class="cls-4" d="M65.6,76.21l5.12,5.08a2,2,0,0,0,3.2,0,2.26,2.26,0,0,1,1.83-.74c3.24,0,6.47,0,9.71,0,.28,0,.66.12.79-.27s-.16-.56-.37-.78-.28-.27-.41-.41c-.39-.46-1-.77-1.23-1.5.72.13,1,.66,1.4,1,.19.15.34.47.6.38s.2-.47.22-.73a7.23,7.23,0,0,1,.11-2.14.73.73,0,0,0-.22-.92c-.67-.65-1.35-1.29-2-2C80.66,69.42,76.91,65.74,73.19,62l-.08.07c0,.44-.32.46-.63.46H67.66c-.32,0-.63,0-.63-.46L67,62l-1.59,1.54c-.17.17-.39.35-.34.62.25,1.33,0,2.68.13,4,.41-.16.4-.55.51-.88.17-.54.25-1.35.75-1.48.76-.19,1-.7,1.33-1.22A1.73,1.73,0,0,1,69,63.93a3.61,3.61,0,0,0,1-.26,1.49,1.49,0,0,1,2.16,1,1.21,1.21,0,0,0,.67.87,2.72,2.72,0,0,1,1,.82.65.65,0,0,0,.72.31c.9-.24,1.16.35,1.23,1a3,3,0,0,0,.93,1.8,5,5,0,0,1,1,1.32,4.33,4.33,0,0,0,2.07,2.07c.51.25.53.41.12.81C78.53,75,77.2,76.28,76,77.64a3,3,0,0,1-2.62,1.07,16.73,16.73,0,0,0-3.06,0c-.8.1-1.86-1.35-1.74-2.12.15-1,.53-2.07-.43-2.86a5.24,5.24,0,0,0-1.65-.92c-.34-.11-.75-.31-.94.14s.2.63.56.76.65.25.55.69a.89.89,0,0,1-.72.72,4.93,4.93,0,0,1-.74,0C65,75.66,65.32,75.93,65.6,76.21Zm12.1,1c-.32-.16-.1-.43.08-.61.6-.61,1.19-1.23,1.82-1.8a1.06,1.06,0,0,1,1.56,0c.53.49,1,1,1.52,1.52s.39,1.08-.39,1.24-1.77,0-2.58.45C79,77.8,78.34,77.57,77.71,77.25Z"/><path class="cls-4" d="M32.32,24.51c0-1.35,0-2.71,0-4.06,0-.76.58-1.46.15-2.25,0-.05.19-.25.3-.37s.52-.39.54-.61c.11-1.14.92-.93,1.65-.93h4.23c.29,0,.63-.08.65.41s.33.32.57.32c.72,0,1.44,0,2.16,0a1.42,1.42,0,0,1,1,.43,1.33,1.33,0,0,1,.54,1.45A15.68,15.68,0,0,0,44,21.39c-.05,1.11-.27,1.39-1.36,1.39A2.18,2.18,0,0,0,41,23.6c-2,2.23-4.18,4.26-6.26,6.39-.31.31-.66.8-1.11.5s-1.26-.66-1.27-1.49C32.31,27.5,32.32,26,32.32,24.51Z"/><path class="cls-4" d="M5.17,11.56a3.87,3.87,0,0,0,1.35,3.11c2.74,2.58,5.35,5.3,8,8,1.59,1.58,3.19,3.14,4.79,4.71,1.05-.64.85-1.61.63-2.55-.13-.56.06-.79.61-.74a1.68,1.68,0,0,0,1.57-.56,1,1,0,0,1,.92-.28,1.85,1.85,0,0,0,1.74-.74c.32-.38.73-.68,1-1.07.58-.7,1.34-.53,2.07-.48.26,0,.36.24.36.48,0,1.19,0,2.38,0,3.57a.56.56,0,0,1-.48.58,4.46,4.46,0,0,0-1,.53,1.85,1.85,0,0,0-1,2.26c1.38,0,2.76,0,4.14.12.47,0,.49-.19.49-.53q0-4.4,0-8.8c0-.3,0-.63-.39-.72-.54,1.05-1.26,1.82-2.59,1.62a2,2,0,0,0-1.88.8,15.62,15.62,0,0,1-1.29,1.29,1.12,1.12,0,0,1-1.17.19c-.41-.14-.29-.55-.3-.86,0-.53,0-1.05,0-1.58a2,2,0,0,0-2-2c-2.1,0-4.21.06-6.31,0a4.85,4.85,0,0,1-3.9-2.41,9.34,9.34,0,0,0-2.45-3.07c-.27-.18-.56-.44-.4-.74.64-1.19-.43-1.48-1-2-.35-.31-.73-.25-.87.3-.09.35-.23.63-.65.63C5.2,10.9,5.18,11.23,5.17,11.56ZM21,18.72c.6,0,.94.26.94.88,0,.91,0,1.82,0,2.73,0,.48-.24.67-.71.71-1.56.13-2.73-.37-3.19-1.95a11.88,11.88,0,0,0-.85-1.78c-.19-.38-.08-.58.35-.58H21Z"/><path class="cls-4" d="M30.28,17.9c-1.05-1.06-.58-2,.15-3s1.61-2.09,3.17-2c.69,0,1.08-.55,1.38-1.06s-.19-.83-.5-1.1c-1-.87-1.73-2-2.77-2.85A5.66,5.66,0,0,1,30,5,2.78,2.78,0,0,0,28.87,3.5a2.52,2.52,0,0,1-1-1.66c-.13-.75.25-1.13,1-.92.33.09.59.15.79-.18.31,0,.48.26.67.45Q36,6.87,41.61,12.55c.21.21.65.35.31.86s.16,1.58-1.2,1.49c-2.12-.13-4.26,0-6.39,0a1.91,1.91,0,0,0-1.46.61A15,15,0,0,1,30.28,17.9Z"/><path class="cls-4" d="M64.64,62.24a1.54,1.54,0,0,1-1.45.82c-4,0-8,0-12,0a1.86,1.86,0,0,0-1.45.62c-2.37,2.4-4.77,4.78-7.15,7.17-.19.19-.4.37-.59.55-.32-.15-.22-.4-.22-.6,0-2.63,0-5.26,0-7.89,0-.54.13-.8.74-.8q10.88,0,21.75,0C64.37,62.1,64.52,62.06,64.64,62.24Z"/><path class="cls-2" d="M60.52,6.91q0,4.85,0,9.71c0,.57.06,1-.82,1a1.68,1.68,0,0,0-1.4,2.55.77.77,0,0,1,.07.7,1.54,1.54,0,0,0,0,1.36c.07.15.13.33,0,.46s-.36,0-.5-.13a2.37,2.37,0,0,1-1-2q.08-5.56,0-11.12a2.32,2.32,0,0,1,.95-2.07A26.14,26.14,0,0,0,61.36,4a3.43,3.43,0,0,1,3.31-1.36C63.58,3.9,62.3,5,61.13,6.25,60.92,6.46,60.72,6.69,60.52,6.91Z"/><path class="cls-2" d="M19.32,27.34c1.05-.64.85-1.61.63-2.55-.13-.56.06-.79.61-.74a1.68,1.68,0,0,0,1.57-.56,1,1,0,0,1,.92-.28,1.85,1.85,0,0,0,1.74-.74c.32-.38.73-.68,1-1.07.58-.7,1.34-.53,2.07-.48.26,0,.36.24.36.48,0,1.19,0,2.38,0,3.57a.56.56,0,0,1-.48.58,4.46,4.46,0,0,0-1,.53,1.85,1.85,0,0,0-1,2.26c-1.44,0-2.87,0-4.31,0A2.2,2.2,0,0,1,19.32,27.34Z"/><path class="cls-2" d="M34.6,77.37c-1-.93-1.91-1.85-2.85-2.78A1.81,1.81,0,0,0,30.69,74c-.78-.11-1-.67-.4-1.22,1.95-1.92,3.92-3.82,5.89-5.72.15-.15.32-.36.57-.21s.08.34.09.53c.09,1.52-.58,3.05,0,4.58.14.35.21.7.66.75.63.07.72.5.72,1C37.09,75,35.88,76.22,34.6,77.37Z"/><path class="cls-2" d="M35.43,35.67c.8,0,1.6,0,2.4,0,.41,0,1-.24,1.17.31a1.68,1.68,0,0,1-.29,1.79c-.94.93-1.87,1.87-2.81,2.81l-1.76,1.75c-.22.22-.44.46-.77.44s-1.17.28-1.33-.29a2.31,2.31,0,0,1,.34-2.35c.7-.74,1.44-1.45,2.16-2.18a1.46,1.46,0,0,0,.55-.8C35.6,36.75,35.23,36.14,35.43,35.67Z"/><path class="cls-2" d="M15,52.31c.06-1.68-.26-3.34-.17-5,0-.9.15-1,1-.9,1.65.17,3.3.07,4.95.08C19,48.49,17,50.41,15,52.31Z"/><path class="cls-2" d="M50.33,65.2l11.43.05c.29,0,.6-.11.86.11,0,.24-.19.35-.32.31-.82-.27-1.63.16-2.46,0s-1.26.25-.86,1.12c.21.47-.08.58-.39.59-1.57,0-3.15.07-4.72,0-.66,0-1.1-.67-1.37-1.22s-.56-.56-1-.46-.95.25-1.25-.3Z"/><path class="cls-4" d="M62.73,6.9c.47,0,.46.4.46.74q0,6.13,0,12.25c-.45-.14-.44-.51-.44-.87Q62.73,13,62.73,6.9Z"/><path class="cls-4" d="M67,62c0-.56.22-.77.8-.76q2.32,0,4.63,0c.57,0,.83.19.8.75l-.08.07H67Z"/><path class="cls-2" d="M94.57,44.8c0,2.93,0,5.87,0,8.8a1.63,1.63,0,0,1-.5,1.42,1.24,1.24,0,0,0-.33,1.07c0,1.8,0,3.6,0,5.4,0,.68-.23,1-.91.91-.11,0-.22,0-.33,0a4.14,4.14,0,0,0-4.4,1.73,1.13,1.13,0,0,1-1,.44q-2,0-3.9,0c-.4,0-.74-.1-.83-.52-.36-1.6-1.77-2.34-2.8-3.39a4.61,4.61,0,0,0-3.28-1.51A.31.31,0,0,1,76,59c-1.13-1.59-2.86-1.16-4.39-1.28-1.31-.1-1.27,0-1.33-1.34-.12-2.49.34-3,2.79-2.8A4.26,4.26,0,0,0,77,52c1.54-1.74,3.25-3.33,4.91-4.95a2,2,0,0,0,.68-1.69c0-.83,0-1.66,0-2.49a2.42,2.42,0,0,1,.83-2c1-.95,1.9-1.94,2.89-2.86a2.24,2.24,0,0,0,.8-1.89c-.06-1.26.23-1.49,1.5-1.49,1.69,0,3.38,0,5.07,0,.69,0,.92.25.91.92C94.56,38.66,94.57,41.73,94.57,44.8Z"/><path class="cls-2" d="M70.65,40.15c-1.3,0-2.6,0-3.9,0a1.31,1.31,0,0,1-1.11-.45l-.06-.06a5.11,5.11,0,0,1-2.27-5.27,19.62,19.62,0,0,0,0-3.32A.93.93,0,0,1,64.17,30c.83-.21,1.68-.3,2.51-.49a2.11,2.11,0,0,1,1.59.25A1.41,1.41,0,0,0,69,30c1.58-.23,3.18.22,4.75-.23a5,5,0,0,0,1.86-1,3.17,3.17,0,0,1,1.06-.62c.91-.3.91-.33.91.62,0,1.36,0,2.71,0,4.07a3.13,3.13,0,0,0,2.91,2.87c1.55,0,3.1,0,4.65,0,.36,0,.87-.17,1,.32a1.47,1.47,0,0,1-.19,1.5c-1.23,1.27-2.5,2.51-3.75,3.76a1.21,1.21,0,0,1-.94.24c-1.33,0-2.66,0-4,0a1.55,1.55,0,0,1-1.38-.6,2,2,0,0,0-1.82-.74c-1.16,0-2.32,0-3.49,0Z"/><path class="cls-2" d="M91.25,33.85c-.8,0-1.61,0-2.41,0a2,2,0,0,0-1.85.68,1.11,1.11,0,0,1-1,.32c-1.94,0-3.87,0-5.81,0a1.73,1.73,0,0,1-1.73-1.73c0-1.85,0-3.71,0-5.56a1.22,1.22,0,0,1,.6-1.09,8.23,8.23,0,0,0,2.54-2.21,1.17,1.17,0,0,1,1.81,0c1.23,1.2,2.45,2.41,3.64,3.64a1.83,1.83,0,0,0,1.46.61c1.38,0,2.77,0,4.15,0a2.59,2.59,0,0,1,2.4,2.36c0,.72,0,1.44,0,2.16s-.25.84-.84.82c-1,0-2,0-3,0Z"/><path class="cls-2" d="M71.05,41.14c.89,0,1.77,0,2.66,0s1.94,0,2.59.9c.21.3.58.27.92.27,1.19,0,2.38,0,3.57,0,.6,0,.89.2.83.82a.65.65,0,0,0,0,.17,5.4,5.4,0,0,1-2.23,5.54,37,37,0,0,0-3.48,3.44,1.49,1.49,0,0,1-1.25.52,3.4,3.4,0,0,0-.91,0c-1.67.33-2.78-.52-3.73-1.73-.09-.11-.26-.25-.23-.32.32-.86-.38-1.73,0-2.58.11-.23.23-.52,0-.71-.74-.76-.56-1.76-.67-2.66A2.91,2.91,0,0,0,67.24,42c-.27-.09-.67-.25-.61-.59s.5-.25.77-.25c1.22,0,2.43,0,3.65,0Z"/><path class="cls-2" d="M90.25,27.69c-1.94.49-3.28-.41-4.44-1.84A11.39,11.39,0,0,0,84,24.15a1.55,1.55,0,0,1-.14-2.61C84.92,20.49,86,19.44,87,18.37a1.5,1.5,0,0,1,1.18-.49c1,0,1.94,0,2.9,0a1.44,1.44,0,0,1,1.44,1.23c0,2.46.81,4.86.55,7.36-.13,1.21,0,1.22-1.27,1.22Z"/><path class="cls-2" d="M92.09,14.92c0-.41,0-.83,0-1.24,0-.62-.07-1.24.68-1.5a.22.22,0,0,0,.11-.12c.39-1,1.25-1.71,1.71-2.67s.77-1.7,1.15-2.56,1-.92,1.75-.41c1.48,1,1.32,2.48,1.18,3.93a6.39,6.39,0,0,0,0,2.05,1.41,1.41,0,0,1-.44,1.42c-1.32,1.29-2.63,2.61-3.92,3.93-.36.36-.76.63-1.24.4a1.45,1.45,0,0,1-1-1.24c0-.66,0-1.33,0-2Z"/><path class="cls-2" d="M97.73,77.54c0,.33,0,.67,0,1,.08.8-.08,1.38-1,1.62-.51.13-.93.73-1.52.4a4.23,4.23,0,0,1-2.19-2.17.72.72,0,0,1,.24-.81l2.17-2.17c.58-.57,1.29-.37,2-.29.3,0,.31.36.31.61C97.74,76.32,97.73,76.93,97.73,77.54Z"/><path class="cls-2" d="M91.14,14.16a9.25,9.25,0,0,1,.09,2.22c0,.34-.21.49-.53.5a1.52,1.52,0,0,1-.33,0,4.47,4.47,0,0,0-4.7,2,13.37,13.37,0,0,1-1.46,1.47c-.13.12-.27.35-.48.17s-.07-.37,0-.53a7.09,7.09,0,0,1,1.07-1.36c.51-.42,1-1.08,1.48-1.26,1.5-.51,2.31-2.06,3.9-2.35C90.65,14.94,90.71,14.45,91.14,14.16Z"/><path class="cls-2" d="M61.84,26H74.63a1.14,1.14,0,0,1-1,.33c-2.65,0-5.3,0-8,0a10.76,10.76,0,0,1-3.12,0c-.26-.07-.56,0-.69-.35Z"/><path class="cls-2" d="M51.37,17.77c0,1.05,0,2.1,0,3.15,0,.33,0,.69-.44.76a.72.72,0,0,1-.83-.51,4.29,4.29,0,0,1-.34-1.86A5.57,5.57,0,0,0,48.57,16a9.54,9.54,0,0,1-1.24-2.61,7.15,7.15,0,0,0-1.65-2.55,2.3,2.3,0,0,1-.61-1,2.9,2.9,0,0,0-1.57-2c-.24-.13-.56-.28-.48-.6s.5-.23.78-.26a1.07,1.07,0,0,1,.89.36q3.14,3.14,6.29,6.27a1.35,1.35,0,0,1,.41,1c0,1.05,0,2.1,0,3.15Z"/><path class="cls-2" d="M31.06,30.86c-.21.26-.52.18-.76.15-1.16-.13-2.31.29-3.46.05a.35.35,0,0,0-.41.21c-.06.14,0,.26.13.36.79.78,1.33,1.8,2.52,2.2a1.4,1.4,0,0,1,.4,2.49c-.52.45-.94.91-.77,1.66,0,.05,0,.11,0,.16.12.61,0,.61-.71.92a9.22,9.22,0,0,0-2.75,1.75,7.1,7.1,0,0,1-2.39,1.4A5.71,5.71,0,0,0,21.3,43c-.89.71-2.06,1.09-2.62,2.21-.14.29-.45.28-.73.29-1,0-1.94,0-2.91,0a1.43,1.43,0,0,1-1.1-.47Q9,40,4,35.09a1.61,1.61,0,0,1-.5-1.26q0-2.24,0-4.48A1.6,1.6,0,0,1,4,28.09c1.21-1.18,2.39-2.39,3.59-3.57a1.21,1.21,0,0,1,2.08.16A13.7,13.7,0,0,1,10.56,26c.81,1.42,2.29,2.13,3.37,3.26s2.44,1.92,3.52,3c.66.68,1.52.41,2.2.83.39.24.85.38,1.24.64a1.26,1.26,0,0,0,1.78-.23c.65-.78.57-1-.36-1.41-.64-.26-1-.91-1.75-1.07-.19,0-.11-.28.1-.33a1.74,1.74,0,0,1,.41,0h9.47C30.72,30.69,30.94,30.62,31.06,30.86Z"/><path class="cls-2" d="M53.31,76.37c-1-.26-1.72.3-2.48,1.1-1.77,1.86-3.63,3.64-5.44,5.48a1.75,1.75,0,0,1-1.39.58c-1.16,0-2.32,0-3.48,0a1.34,1.34,0,0,1-1.06-.37c-.83-.85-1.68-1.69-2.51-2.54-.15-.15-.36-.31-.24-.56s.33-.16.51-.19a1.93,1.93,0,0,0,1.63-2.55c-.09-.38-.57-.73-.23-1.14a1.81,1.81,0,0,1,1.44-.5,7.94,7.94,0,0,0,4.12-1.47,2.44,2.44,0,0,1,.84-.32,1.72,1.72,0,0,0,1.41-2.37,2,2,0,0,1,.5-2.37,19,19,0,0,1,1.51-1.54,1.12,1.12,0,0,1,.81-.37.81.81,0,0,0,.68-.23,1.58,1.58,0,0,1,2-.28,1.8,1.8,0,0,1,1.23,1.79c0,.05,0,.11,0,.17a3.66,3.66,0,0,0,1.59,3.87,1.4,1.4,0,0,1,.58,1.38c0,.19,0,.39,0,.58C55.35,76.61,55.61,76.35,53.31,76.37Z"/><path class="cls-2" d="M34.69,99.18c-.45-.88-1.1-1.16-1.6-1.6a2.67,2.67,0,0,1-1.21-2.2c.08-1.15-.72-2.27-.41-3.39.37-1.32-.11-2.56,0-3.83a1.87,1.87,0,0,1,.66-1.34,10.35,10.35,0,0,1,2.42-2.18c.23-.12.24-.42.28-.67a1,1,0,0,1,.84-.92c.64-.14.89-.5.7-1.14-.06-.21-.12-.46.13-.6s.41.08.56.23c.77.76,1.54,1.51,2.29,2.28a1.56,1.56,0,0,0,1.25.52c1,0,2,0,3.07,0,.56,0,.8.21.79.78q0,1.45,0,2.9a1.5,1.5,0,0,1-.58,1.14l-8.1,8.09A2.36,2.36,0,0,0,34.69,99.18Z"/><path class="cls-2" d="M56.94,68.22A9.66,9.66,0,0,0,59.89,68c.72-.29,1.7.93,1.53,1.81a7.43,7.43,0,0,0-.14,1.55c0,.63,0,1.3-.87,1.59a1.05,1.05,0,0,0-.61,1.45,3.63,3.63,0,0,0,.84,1.77c.35.3.33.58-.23.58H56.82c-.4,0-.63-.18-.63-.6a2.94,2.94,0,0,1,0-.41,4.13,4.13,0,0,0-1.73-4.32c-.44-.31-.62-2.48-.34-2.92.16-.25.42-.23.67-.24Z"/><path class="cls-2" d="M84.62,84.72a38.68,38.68,0,0,0-.18,5.61c0,.45-.23.7-.67.63a2.15,2.15,0,0,0-2,.92c-.44.5-.93.95-1.41,1.41-.18.18-.37.37-.65.27s-.29-.4-.26-.63a2.08,2.08,0,0,0-.82-1.87c-1.1-1-2.16-2.14-3.23-3.23-.61-.63-.53-.8.18-1.34a7.45,7.45,0,0,1,4.17-1.15,2.54,2.54,0,0,0,1.86-.75,3.65,3.65,0,0,1,2.82-.2C84.56,84.48,84.66,84.57,84.62,84.72Z"/><path class="cls-2" d="M78.62,92.86a2.88,2.88,0,0,1-3.27,2.94c-.56-.08-.6-.45-.51-.84a1.41,1.41,0,0,0-.32-1.38,1,1,0,0,1-.19-.86,18.24,18.24,0,0,1,.26-2.45,1.78,1.78,0,0,0-.15-1.45c-.13-.25-.24-.59,0-.77s.47.15.65.32c.93.9,1.83,1.85,2.78,2.73A1.84,1.84,0,0,1,78.62,92.86Z"/><path class="cls-2" d="M87.14,86.61a13.1,13.1,0,0,1-.29,4.23c-.16.63.32,1.08.55,1.6.1.22.3.5.07.68s-.41-.15-.6-.28l-.06-.06C85.75,91.91,85,91,85.38,89.4a13.15,13.15,0,0,0,0-3c0-1.17,0-1.17,1-.68C87.16,86.08,87.21,86.15,87.14,86.61Z"/><path class="cls-2" d="M19.15,95.8H15.91c-1,0-1.53-.82-.9-1.68a5.37,5.37,0,0,0,1-3,2.66,2.66,0,0,1,1.47-2.58,2,2,0,0,1,1.84.15c1.06.52,1.79,1.67,3.13,1.64a.74.74,0,0,1,.67.55c.35.9.72,1.79,1,2.71a1.84,1.84,0,0,1-1.63,2.18h-3.4Z"/><path class="cls-2" d="M32.36,43.78c1.21.25,1.74-.56,2.37-1.19L39.31,38c.19-.19.53-.45.5-.63-.22-1.5.9-2.74.77-4.21a1.56,1.56,0,0,1,.57-1.47c.59-.48.49-1.21.58-1.84a1.44,1.44,0,0,1,2.18-1.17,11.2,11.2,0,0,1,2.48,2.25c.73.85,1.58,2.08,3.16,1.62a2.05,2.05,0,0,1,1.81.36,13.48,13.48,0,0,1,1.42,1,2.55,2.55,0,0,1,1,1.66c.09,1.12,1,2,1.29,3A12.35,12.35,0,0,1,55.91,41a1.57,1.57,0,0,0,1.47,1.35,1.06,1.06,0,0,1,.87.53,6.67,6.67,0,0,0,2.87,2.52c.88.44.91.64.19,1.37-1.73,1.75-3.46,3.5-5.22,5.23a1.88,1.88,0,0,0-.74,1.66,1.26,1.26,0,0,1-.49,1.09c-.85.83-1.66,1.7-2.54,2.51a2,2,0,0,0-.81,1.8c.07.65-.29.88-.87.68a11.26,11.26,0,0,0-2.85-.44,5,5,0,0,1-2-.49,5.34,5.34,0,0,0-2.33-.43,1.57,1.57,0,0,1-1.21-.39c-.75-.82-1.88-1.32-2.11-2.57a.75.75,0,0,0-.49-.54,8.32,8.32,0,0,1-3-2.45,4.35,4.35,0,0,0-1.21-.86,1,1,0,0,1-.58-1.08s0-.06,0-.08c.3-2.46-.06-4.66-2.33-6.15C32.53,44.16,32.51,44,32.36,43.78Z"/><path class="cls-2" d="M52.38,58.67a1.34,1.34,0,0,1,.51-1.18q1.22-1.18,2.4-2.41a1.55,1.55,0,0,1,1.18-.49c2.9-.06,2.9-.06,4.95,2l.64.65a1.37,1.37,0,0,1-.74,2.46c-.72.18-1.45.31-2.18.47a1.38,1.38,0,0,1-1,0c-.79-.44-1.72-.21-2.54-.61-.5-.24-1.05.2-1.57.38C53,60.27,52.37,59.81,52.38,58.67Z"/><path class="cls-2" d="M63.51,50c-.28,1.12-.17,2.45-.77,3.63a1.73,1.73,0,0,0,0,1.81.81.81,0,0,1-.19,1.12c-.36.26-.53-.24-.78-.42a2.07,2.07,0,0,1-.41-.41,4.31,4.31,0,0,0-4.46-2c-.26,0-.59,0-.7-.29a1.06,1.06,0,0,1,.3-1.13c.94-.93,1.87-1.88,2.81-2.81l1.82-1.81c.22-.21.45-.49.78-.22C62.72,48.13,63.55,48.72,63.51,50Z"/><path class="cls-2" d="M33.93,47.14c0,.69,0,1.38,0,2.07,0,.34-.18.74-.52.39a19.66,19.66,0,0,0-2.3-1.45,2.83,2.83,0,0,1-1-2.26c0-.58.7-1.18,1.12-1.75.09-.12.26,0,.36.08.76.76,1.53,1.52,2.28,2.3A.53.53,0,0,1,33.93,47.14Z"/><path class="cls-2" d="M38.31,31.83H36.91c-.22,0-.46,0-.57-.24a.6.6,0,0,1,.16-.68c1-1,1.92-2,2.91-2.91a.77.77,0,0,1,1.3.48,18,18,0,0,1,0,2.56.86.86,0,0,1-.9.8C39.3,31.85,38.81,31.83,38.31,31.83Z"/><path class="cls-2" d="M38.32,34.81c-.22,0-.44,0-.66,0-.84-.08-1-.3-.57-1,.16-.3.06-.8.51-.88a5.48,5.48,0,0,1,1.72-.16c.68.1.37.74.42,1.17s0,.86-.58.9C38.88,34.83,38.6,34.81,38.32,34.81Z"/><path class="cls-2" d="M13.66,67.44c0,2.1,0,4.2,0,6.31,0,.36.14.87-.43.92s-1.17.29-1.47-.4c-.45-1-1.24-2-1-3.23a1.7,1.7,0,0,0-.25-1,2.07,2.07,0,0,1-.16-1.29s0-.06,0-.08c-.69-1.44.6-3.13-.59-4.51-.25-.3-.07-.7,0-1a2.1,2.1,0,0,0,.12-1.6.35.35,0,0,1,.34-.52,2,2,0,0,0,1.61-.87c.26-.28.55-.62,1-.39a1.27,1.27,0,0,1,.75,1.19c0,1.74,0,3.48,0,5.23q0,.66,0,1.33Z"/><path class="cls-2" d="M20.75,78.2c1.74.56,3.25-.43,4.52-2,.32-.41.79-.71,1.1-1.13a2.67,2.67,0,0,1,2.72-1c.57,0,.87.31.87.88s0,1.38,0,2.07a2.13,2.13,0,0,1-1.4,2.23,7.74,7.74,0,0,0-2.83,2.06,2,2,0,0,1-3.17-.12,3.47,3.47,0,0,0-2.32-1.44,6.41,6.41,0,0,0-2.53-.27c-.43.06-.51-.22-.52-.56s.1-.71.59-.7Z"/><path class="cls-2" d="M12.47,76.44c-.24-.67.18-.74.73-.74a3.14,3.14,0,0,1,3,2.89c0,.27,0,.58-.29.71a.73.73,0,0,1-.82-.24,2.52,2.52,0,0,0-1-.56C12.9,78.13,12.6,77.73,12.47,76.44Z"/><path class="cls-2" d="M19.81,50.45a1.44,1.44,0,0,1,0-.16.63.63,0,0,1,.61-.46c.12,0,.23.09.19.21-.1.28-.39.27-.61.36a1.47,1.47,0,0,1-.24.06Z"/><path class="cls-2" d="M19.81,50.45a.66.66,0,0,1,0,.08c-.08.25-.11.54-.43.62,0,0-.15-.09-.15-.14,0-.36.29-.48.59-.55Z"/><path class="cls-2" d="M18.19,52.31c0-.13-.1-.22-.08-.27a.71.71,0,0,1,.23-.29c.1-.07.23,0,.19.13S18.37,52.09,18.19,52.31Z"/><path class="cls-2" d="M79.72,78.08c-.7-.28-1.38-.51-2-.83-.32-.16-.1-.43.08-.61.6-.61,1.19-1.23,1.82-1.8a1.06,1.06,0,0,1,1.56,0c.53.49,1,1,1.52,1.52s.39,1.08-.39,1.24S80.52,77.58,79.72,78.08Z"/><path class="cls-2" d="M67,62.11h6.08c0,.44-.32.46-.63.46H67.66C67.34,62.57,67,62.56,67,62.11Z"/><path class="cls-2" d="M19.37,18.72H21c.6,0,.94.26.94.88,0,.91,0,1.82,0,2.73,0,.48-.24.67-.71.71-1.56.13-2.73-.37-3.19-1.95a11.88,11.88,0,0,0-.85-1.78c-.19-.38-.08-.58.35-.58h1.82Z"/></pattern></defs><title>bg-image</title><g class="cls-5"><g id="Layer_1" data-name="Layer 1"><rect class="cls-6" x="1157.5" y="-9.75" width="198.17" height="943.93"/><rect class="cls-6" x="-2" y="-9.75" width="198.17" height="943.93" transform="translate(194.17 924.43) rotate(-180)"/><polygon class="cls-7" points="1157 53 1354 53 1354 -16 1156 -16 1157 53"/><polygon class="cls-8" points="1157 122 1354 122 1354 53 1156 53 1157 122"/><polygon class="cls-9" points="1157 191 1354 191 1354 122 1156 122 1157 191"/><polygon class="cls-10" points="1157 260 1354 260 1354 191 1156 191 1157 260"/><polygon class="cls-11" points="1157 329 1354 329 1354 260 1156 260 1157 329"/><polygon class="cls-12" points="1157 398 1354 398 1354 329 1156 329 1157 398"/><polygon class="cls-13" points="1157 467 1354 467 1354 398 1156 398 1157 467"/><polygon class="cls-14" points="1157 536 1354 536 1354 467 1156 467 1157 536"/><polygon class="cls-15" points="1157 605 1354 605 1354 536 1156 536 1157 605"/><polygon class="cls-16" points="1157 674 1354 674 1354 605 1156 605 1157 674"/><polygon class="cls-17" points="1157 743 1354 743 1354 674 1156 674 1157 743"/><polygon class="cls-18" points="1157 812 1354 812 1354 743 1156 743 1157 812"/><polygon class="cls-19" points="1157 881 1354 881 1354 812 1156 812 1157 881"/><polygon class="cls-20" points="1157 950 1354 950 1354 881 1156 881 1157 950"/><polygon class="cls-21" points="196.67 53 0 53 0 -16 197.67 -16 196.67 53"/><polygon class="cls-22" points="196.67 122 0 122 0 53 197.67 53 196.67 122"/><polygon class="cls-23" points="196.67 191 0 191 0 122 197.67 122 196.67 191"/><polygon class="cls-24" points="196.67 260 0 260 0 191 197.67 191 196.67 260"/><polygon class="cls-25" points="196.67 329 0 329 0 260 197.67 260 196.67 329"/><polygon class="cls-26" points="196.67 398 0 398 0 329 197.67 329 196.67 398"/><polygon class="cls-27" points="196.67 467 0 467 0 398 197.67 398 196.67 467"/><polygon class="cls-28" points="196.67 536 0 536 0 467 197.67 467 196.67 536"/><polygon class="cls-29" points="196.67 605 0 605 0 536 197.67 536 196.67 605"/><polygon class="cls-30" points="196.67 674 0 674 0 605 197.67 605 196.67 674"/><polygon class="cls-31" points="196.67 743 0 743 0 674 197.67 674 196.67 743"/><polygon class="cls-32" points="196.67 812 0 812 0 743 197.67 743 196.67 812"/><polygon class="cls-33" points="196.67 881 0 881 0 812 197.67 812 196.67 881"/><polygon class="cls-34" points="196.67 950 0 950 0 881 197.67 881 196.67 950"/><path class="cls-35" d="M211,951s-32-32-30-38S181,1,181,1h986V919l-28,42"/><path class="cls-36" d="M77,33.15a20.1,20.1,0,0,1,7.33,1.44C65.42,41.94,51.12,77.1,51.12,119.4s14.3,77.46,33.16,84.81A20.1,20.1,0,0,1,77,205.64c-22.37,0-40.5-38.61-40.5-86.25S54.59,33.15,77,33.15Z"/><path class="cls-36" d="M77,33.15a20.1,20.1,0,0,1,7.33,1.44C65.42,41.94,51.12,77.1,51.12,119.4s14.3,77.46,33.16,84.81A20.1,20.1,0,0,1,77,205.64c-22.37,0-40.5-38.61-40.5-86.25S54.59,33.15,77,33.15Z"/><ellipse class="cls-37" cx="98.62" cy="119.4" rx="40.5" ry="86.25"/><path class="cls-38" d="M98.62,33.15a20,20,0,0,0-7,1.31c19,7.07,33.5,42.39,33.5,84.94s-14.47,77.87-33.5,84.94a20,20,0,0,0,7,1.31c22.37,0,40.5-38.61,40.5-86.25S121,33.15,98.62,33.15Z"/><path class="cls-39" d="M48.12,119.4c0,54.87,21.71,96.25,50.5,96.25s50.5-41.38,50.5-96.25-21.71-96.25-50.5-96.25S48.12,64.53,48.12,119.4Zm23.31,64.05c-8.58-16.36-13.31-39.1-13.31-64.05s4.73-47.7,13.31-64.05c4.35-8.29,13.66-22.19,27.19-22.19s22.84,13.9,27.19,22.19c8.58,16.36,13.31,39.1,13.31,64.05s-4.73,47.7-13.31,64.05c-4.35,8.29-13.66,22.19-27.19,22.19S75.78,191.74,71.43,183.45Z"/><path class="cls-40" d="M98.62,33.15a20,20,0,0,0-7,1.31c19,7.07,33.5,42.39,33.5,84.94s-14.47,77.87-33.5,84.94a20,20,0,0,0,7,1.31c22.37,0,40.5-38.61,40.5-86.25S121,33.15,98.62,33.15Z"/><ellipse class="cls-35" cx="92.67" cy="53" rx="1.66" ry="3.63"/><ellipse class="cls-35" cx="115.29" cy="101" rx="1.38" ry="3.02"/><ellipse class="cls-35" cx="83.66" cy="163.16" rx="0.39" ry="0.85"/><ellipse class="cls-35" cx="85.33" cy="77.85" rx="0.39" ry="0.85"/><ellipse class="cls-35" cx="93.78" cy="101.67" rx="0.89" ry="1.47"/><ellipse class="cls-35" cx="87.06" cy="136.33" rx="0.39" ry="0.85"/><ellipse class="cls-35" cx="72.39" cy="109.67" rx="1.44" ry="3.13"/><ellipse class="cls-35" cx="72.1" cy="151.67" rx="1.44" ry="3.13"/><ellipse class="cls-35" cx="73.49" cy="89.83" rx="1.7" ry="2.67"/><ellipse class="cls-35" cx="104" cy="139.67" rx="1.7" ry="2.67"/><ellipse class="cls-35" cx="103.23" cy="164.69" rx="0.87" ry="1.9"/><ellipse class="cls-35" cx="84.48" cy="188.44" rx="0.87" ry="1.9"/><path class="cls-41" d="M77,349.65a20.1,20.1,0,0,1,7.33,1.44c-18.86,7.35-33.16,42.51-33.16,84.81s14.3,77.46,33.16,84.81A20.1,20.1,0,0,1,77,522.14c-22.37,0-40.5-38.61-40.5-86.25S54.59,349.65,77,349.65Z"/><path class="cls-41" d="M77,349.65a20.1,20.1,0,0,1,7.33,1.44c-18.86,7.35-33.16,42.51-33.16,84.81s14.3,77.46,33.16,84.81A20.1,20.1,0,0,1,77,522.14c-22.37,0-40.5-38.61-40.5-86.25S54.59,349.65,77,349.65Z"/><ellipse class="cls-37" cx="98.62" cy="435.9" rx="40.5" ry="86.25"/><path class="cls-38" d="M98.62,349.65a20,20,0,0,0-7,1.31c19,7.07,33.5,42.39,33.5,84.94s-14.47,77.87-33.5,84.94a20,20,0,0,0,7,1.31c22.37,0,40.5-38.61,40.5-86.25S121,349.65,98.62,349.65Z"/><path class="cls-39" d="M48.12,435.9c0,54.87,21.71,96.25,50.5,96.25s50.5-41.38,50.5-96.25-21.71-96.25-50.5-96.25S48.12,381,48.12,435.9Zm23.31,64.05c-8.58-16.36-13.31-39.1-13.31-64.05s4.73-47.7,13.31-64.05c4.35-8.29,13.66-22.19,27.19-22.19s22.84,13.9,27.19,22.19c8.58,16.36,13.31,39.1,13.31,64.05s-4.73,47.7-13.31,64.05c-4.35,8.29-13.66,22.19-27.19,22.19S75.78,508.24,71.43,499.95Z"/><path class="cls-42" d="M98.62,349.65a20,20,0,0,0-7,1.31c19,7.07,33.5,42.39,33.5,84.94s-14.47,77.87-33.5,84.94a20,20,0,0,0,7,1.31c22.37,0,40.5-38.61,40.5-86.25S121,349.65,98.62,349.65Z"/><ellipse class="cls-35" cx="91.67" cy="369.5" rx="1.66" ry="3.63"/><ellipse class="cls-35" cx="69.05" cy="417.5" rx="1.38" ry="3.02"/><ellipse class="cls-35" cx="100.68" cy="479.66" rx="0.39" ry="0.85"/><ellipse class="cls-35" cx="99" cy="394.35" rx="0.39" ry="0.85"/><ellipse class="cls-35" cx="90.56" cy="418.17" rx="0.89" ry="1.47"/><ellipse class="cls-35" cx="97.28" cy="452.83" rx="0.39" ry="0.85"/><ellipse class="cls-35" cx="111.94" cy="426.17" rx="1.44" ry="3.13"/><ellipse class="cls-35" cx="112.23" cy="468.17" rx="1.44" ry="3.13"/><ellipse class="cls-35" cx="110.84" cy="406.33" rx="1.7" ry="2.67"/><ellipse class="cls-35" cx="80.33" cy="456.17" rx="1.7" ry="2.67"/><ellipse class="cls-35" cx="81.11" cy="481.19" rx="0.87" ry="1.9"/><ellipse class="cls-35" cx="99.86" cy="504.94" rx="0.87" ry="1.9"/><path class="cls-43" d="M77,666.15a20.1,20.1,0,0,1,7.33,1.44c-18.86,7.35-33.16,42.51-33.16,84.81s14.3,77.46,33.16,84.81A20.1,20.1,0,0,1,77,838.64c-22.37,0-40.5-38.61-40.5-86.25S54.59,666.15,77,666.15Z"/><path class="cls-43" d="M77,666.15a20.1,20.1,0,0,1,7.33,1.44c-18.86,7.35-33.16,42.51-33.16,84.81s14.3,77.46,33.16,84.81A20.1,20.1,0,0,1,77,838.64c-22.37,0-40.5-38.61-40.5-86.25S54.59,666.15,77,666.15Z"/><ellipse class="cls-37" cx="98.62" cy="752.4" rx="40.5" ry="86.25"/><path class="cls-38" d="M98.62,666.15a20,20,0,0,0-7,1.31c19,7.07,33.5,42.39,33.5,84.94s-14.47,77.87-33.5,84.94a20,20,0,0,0,7,1.31c22.37,0,40.5-38.61,40.5-86.25S121,666.15,98.62,666.15Z"/><path class="cls-39" d="M48.12,752.4c0,54.87,21.71,96.25,50.5,96.25s50.5-41.38,50.5-96.25-21.71-96.25-50.5-96.25S48.12,697.53,48.12,752.4Zm23.31,64.05c-8.58-16.36-13.31-39.1-13.31-64.05s4.73-47.7,13.31-64.05c4.35-8.29,13.66-22.19,27.19-22.19s22.84,13.9,27.19,22.19c8.58,16.36,13.31,39.1,13.31,64.05s-4.73,47.7-13.31,64.05c-4.35,8.29-13.66,22.19-27.19,22.19S75.78,824.74,71.43,816.45Z"/><path class="cls-44" d="M98.62,666.15a20,20,0,0,0-7,1.31c19,7.07,33.5,42.39,33.5,84.94s-14.47,77.87-33.5,84.94a20,20,0,0,0,7,1.31c22.37,0,40.5-38.61,40.5-86.25S121,666.15,98.62,666.15Z"/><ellipse class="cls-35" cx="99.86" cy="821.44" rx="0.87" ry="1.9"/><ellipse class="cls-35" cx="89.78" cy="687.99" rx="1.66" ry="3.63"/><ellipse class="cls-35" cx="67.16" cy="735.99" rx="1.38" ry="3.02"/><ellipse class="cls-35" cx="98.79" cy="798.16" rx="0.39" ry="0.85"/><ellipse class="cls-35" cx="70.28" cy="719.34" rx="0.85" ry="0.39" transform="translate(-555.9 358.38) rotate(-54.46)"/><ellipse class="cls-35" cx="97.11" cy="712.84" rx="0.39" ry="0.85"/><ellipse class="cls-35" cx="115.78" cy="747.96" rx="0.89" ry="1.47"/><ellipse class="cls-35" cx="95.39" cy="771.33" rx="0.39" ry="0.85"/><ellipse class="cls-35" cx="112.28" cy="777.64" rx="0.39" ry="0.85"/><ellipse class="cls-35" cx="82.71" cy="751.49" rx="1.44" ry="3.13"/><ellipse class="cls-35" cx="101.28" cy="748.49" rx="1.44" ry="3.13"/><ellipse class="cls-35" cx="105.78" cy="697.99" rx="1.44" ry="3.13"/><ellipse class="cls-35" cx="108.96" cy="724.82" rx="1.7" ry="2.67"/><ellipse class="cls-35" cx="69.98" cy="774.99" rx="1.7" ry="2.67"/><ellipse class="cls-35" cx="79.22" cy="799.69" rx="0.87" ry="1.9"/><path class="cls-45" d="M1282.62,33.15a20.1,20.1,0,0,0-7.33,1.44c18.86,7.35,33.16,42.51,33.16,84.81s-14.3,77.46-33.16,84.81a20.1,20.1,0,0,0,7.33,1.44c22.37,0,40.5-38.61,40.5-86.25S1305,33.15,1282.62,33.15Z"/><path class="cls-45" d="M1282.62,33.15a20.1,20.1,0,0,0-7.33,1.44c18.86,7.35,33.16,42.51,33.16,84.81s-14.3,77.46-33.16,84.81a20.1,20.1,0,0,0,7.33,1.44c22.37,0,40.5-38.61,40.5-86.25S1305,33.15,1282.62,33.15Z"/><ellipse class="cls-37" cx="1260.95" cy="119.4" rx="40.5" ry="86.25"/><path class="cls-38" d="M1261,33.15a20,20,0,0,1,7,1.31c-19,7.07-33.5,42.39-33.5,84.94s14.47,77.87,33.5,84.94a20,20,0,0,1-7,1.31c-22.37,0-40.5-38.61-40.5-86.25S1238.59,33.15,1261,33.15Z"/><path class="cls-39" d="M1261,23.15c-28.79,0-50.5,41.38-50.5,96.25s21.71,96.25,50.5,96.25,50.5-41.38,50.5-96.25S1289.74,23.15,1261,23.15Zm0,182.49c-13.53,0-22.84-13.9-27.19-22.19-8.58-16.36-13.31-39.1-13.31-64.05s4.73-47.7,13.31-64.05c4.35-8.29,13.66-22.19,27.19-22.19s22.84,13.9,27.19,22.19c8.58,16.36,13.31,39.1,13.31,64.05s-4.73,47.7-13.31,64.05C1283.79,191.74,1274.48,205.64,1261,205.64Z"/><path class="cls-46" d="M1261,33.15a20,20,0,0,1,7,1.31c-19,7.07-33.5,42.39-33.5,84.94s14.47,77.87,33.5,84.94a20,20,0,0,1-7,1.31c-22.37,0-40.5-38.61-40.5-86.25S1238.59,33.15,1261,33.15Z"/><ellipse class="cls-35" cx="1266.91" cy="53" rx="1.66" ry="3.63"/><ellipse class="cls-35" cx="1244.29" cy="101" rx="1.38" ry="3.02"/><ellipse class="cls-35" cx="1275.91" cy="163.16" rx="0.39" ry="0.85"/><ellipse class="cls-35" cx="1274.24" cy="77.85" rx="0.39" ry="0.85"/><ellipse class="cls-35" cx="1265.79" cy="101.67" rx="0.89" ry="1.47"/><ellipse class="cls-35" cx="1272.52" cy="136.33" rx="0.39" ry="0.85"/><ellipse class="cls-35" cx="1287.18" cy="109.67" rx="1.44" ry="3.13"/><ellipse class="cls-35" cx="1287.47" cy="151.67" rx="1.44" ry="3.13"/><ellipse class="cls-35" cx="1286.08" cy="89.83" rx="1.7" ry="2.67"/><ellipse class="cls-35" cx="1255.57" cy="139.67" rx="1.7" ry="2.67"/><ellipse class="cls-35" cx="1256.34" cy="164.69" rx="0.87" ry="1.9"/><ellipse class="cls-35" cx="1275.09" cy="188.44" rx="0.87" ry="1.9"/><path class="cls-47" d="M1282.62,349.65a20.1,20.1,0,0,0-7.33,1.44c18.86,7.35,33.16,42.51,33.16,84.81s-14.3,77.46-33.16,84.81a20.1,20.1,0,0,0,7.33,1.44c22.37,0,40.5-38.61,40.5-86.25S1305,349.65,1282.62,349.65Z"/><path class="cls-47" d="M1282.62,349.65a20.1,20.1,0,0,0-7.33,1.44c18.86,7.35,33.16,42.51,33.16,84.81s-14.3,77.46-33.16,84.81a20.1,20.1,0,0,0,7.33,1.44c22.37,0,40.5-38.61,40.5-86.25S1305,349.65,1282.62,349.65Z"/><ellipse class="cls-37" cx="1260.95" cy="435.9" rx="40.5" ry="86.25"/><path class="cls-38" d="M1261,349.65a20,20,0,0,1,7,1.31c-19,7.07-33.5,42.39-33.5,84.94s14.47,77.87,33.5,84.94a20,20,0,0,1-7,1.31c-22.37,0-40.5-38.61-40.5-86.25S1238.59,349.65,1261,349.65Z"/><path class="cls-39" d="M1261,339.65c-28.79,0-50.5,41.38-50.5,96.25s21.71,96.25,50.5,96.25,50.5-41.38,50.5-96.25S1289.74,339.65,1261,339.65Zm0,182.49c-13.53,0-22.84-13.9-27.19-22.19-8.58-16.36-13.31-39.1-13.31-64.05s4.73-47.7,13.31-64.05c4.35-8.29,13.66-22.19,27.19-22.19s22.84,13.9,27.19,22.19c8.58,16.36,13.31,39.1,13.31,64.05s-4.73,47.7-13.31,64.05C1283.79,508.24,1274.48,522.14,1261,522.14Z"/><path class="cls-48" d="M1261,349.65a20,20,0,0,1,7,1.31c-19,7.07-33.5,42.39-33.5,84.94s14.47,77.87,33.5,84.94a20,20,0,0,1-7,1.31c-22.37,0-40.5-38.61-40.5-86.25S1238.59,349.65,1261,349.65Z"/><ellipse class="cls-35" cx="1267.91" cy="369.5" rx="1.66" ry="3.63"/><ellipse class="cls-35" cx="1290.52" cy="417.5" rx="1.38" ry="3.02"/><ellipse class="cls-35" cx="1258.9" cy="479.66" rx="0.39" ry="0.85"/><ellipse class="cls-35" cx="1260.57" cy="394.35" rx="0.39" ry="0.85"/><ellipse class="cls-35" cx="1269.02" cy="418.17" rx="0.89" ry="1.47"/><ellipse class="cls-35" cx="1262.3" cy="452.83" rx="0.39" ry="0.85"/><ellipse class="cls-35" cx="1247.63" cy="426.17" rx="1.44" ry="3.13"/><ellipse class="cls-35" cx="1247.34" cy="468.17" rx="1.44" ry="3.13"/><ellipse class="cls-35" cx="1248.73" cy="406.33" rx="1.7" ry="2.67"/><ellipse class="cls-35" cx="1279.24" cy="456.17" rx="1.7" ry="2.67"/><ellipse class="cls-35" cx="1278.47" cy="481.19" rx="0.87" ry="1.9"/><ellipse class="cls-35" cx="1259.72" cy="504.94" rx="0.87" ry="1.9"/><path class="cls-49" d="M1282.62,666.15a20.1,20.1,0,0,0-7.33,1.44c18.86,7.35,33.16,42.51,33.16,84.81s-14.3,77.46-33.16,84.81a20.1,20.1,0,0,0,7.33,1.44c22.37,0,40.5-38.61,40.5-86.25S1305,666.15,1282.62,666.15Z"/><path class="cls-49" d="M1282.62,666.15a20.1,20.1,0,0,0-7.33,1.44c18.86,7.35,33.16,42.51,33.16,84.81s-14.3,77.46-33.16,84.81a20.1,20.1,0,0,0,7.33,1.44c22.37,0,40.5-38.61,40.5-86.25S1305,666.15,1282.62,666.15Z"/><ellipse class="cls-37" cx="1260.95" cy="752.4" rx="40.5" ry="86.25"/><path class="cls-38" d="M1261,666.15a20,20,0,0,1,7,1.31c-19,7.07-33.5,42.39-33.5,84.94s14.47,77.87,33.5,84.94a20,20,0,0,1-7,1.31c-22.37,0-40.5-38.61-40.5-86.25S1238.59,666.15,1261,666.15Z"/><path class="cls-39" d="M1261,656.15c-28.79,0-50.5,41.38-50.5,96.25s21.71,96.25,50.5,96.25,50.5-41.38,50.5-96.25S1289.74,656.15,1261,656.15Zm0,182.49c-13.53,0-22.84-13.9-27.19-22.19-8.58-16.36-13.31-39.1-13.31-64.05s4.73-47.7,13.31-64.05c4.35-8.29,13.66-22.19,27.19-22.19s22.84,13.9,27.19,22.19c8.58,16.36,13.31,39.1,13.31,64.05s-4.73,47.7-13.31,64.05C1283.79,824.74,1274.48,838.64,1261,838.64Z"/><path class="cls-50" d="M1261,666.15a20,20,0,0,1,7,1.31c-19,7.07-33.5,42.39-33.5,84.94s14.47,77.87,33.5,84.94a20,20,0,0,1-7,1.31c-22.37,0-40.5-38.61-40.5-86.25S1238.59,666.15,1261,666.15Z"/><ellipse class="cls-35" cx="1259.72" cy="821.44" rx="0.87" ry="1.9"/><ellipse class="cls-35" cx="1269.79" cy="687.99" rx="1.66" ry="3.63"/><ellipse class="cls-35" cx="1292.41" cy="735.99" rx="1.38" ry="3.02"/><ellipse class="cls-35" cx="1260.79" cy="798.16" rx="0.39" ry="0.85"/><ellipse class="cls-35" cx="1289.29" cy="719.34" rx="0.39" ry="0.85" transform="translate(-177.95 883.48) rotate(-35.54)"/><ellipse class="cls-35" cx="1262.46" cy="712.84" rx="0.39" ry="0.85"/><ellipse class="cls-35" cx="1243.79" cy="747.96" rx="0.89" ry="1.47"/><ellipse class="cls-35" cx="1264.18" cy="771.33" rx="0.39" ry="0.85"/><ellipse class="cls-35" cx="1247.29" cy="777.64" rx="0.39" ry="0.85"/><ellipse class="cls-35" cx="1276.86" cy="751.49" rx="1.44" ry="3.13"/><ellipse class="cls-35" cx="1258.29" cy="748.49" rx="1.44" ry="3.13"/><ellipse class="cls-35" cx="1253.79" cy="697.99" rx="1.44" ry="3.13"/><ellipse class="cls-35" cx="1250.62" cy="724.82" rx="1.7" ry="2.67"/><ellipse class="cls-35" cx="1289.6" cy="774.99" rx="1.7" ry="2.67"/><ellipse class="cls-35" cx="1280.36" cy="799.69" rx="0.87" ry="1.9"/><rect class="cls-51" x="178.76" y="1.5" width="989.16" height="936.46"/><path class="cls-52" d="M184,.65h28.5a0,0,0,0,1,0,0V861.16a14.25,14.25,0,0,1-14.25,14.25h0A14.25,14.25,0,0,1,184,861.16V.65A0,0,0,0,1,184,.65Z"/><path class="cls-53" d="M167.55.65H196a0,0,0,0,1,0,0V871.36a14.25,14.25,0,0,1-14.25,14.25h0a14.25,14.25,0,0,1-14.25-14.25V.65A0,0,0,0,1,167.55.65Z"/><path class="cls-52" d="M1161.25.65h0A14.25,14.25,0,0,1,1175.5,14.9V875.41a0,0,0,0,1,0,0H1147a0,0,0,0,1,0,0V14.9A14.25,14.25,0,0,1,1161.25.65Z" transform="translate(2322.49 876.06) rotate(180)"/><path class="cls-53" d="M1177.75.65h0A14.25,14.25,0,0,1,1192,14.9V885.61a0,0,0,0,1,0,0h-28.5a0,0,0,0,1,0,0V14.9A14.25,14.25,0,0,1,1177.75.65Z" transform="translate(2355.49 886.27) rotate(180)"/></g></g></svg>